{"glyphs":{"0":{"ha":861,"x_min":0,"x_max":0,"o":"m 431 -14 b 56 521 204 -14 56 225 b 431 1056 56 817 218 1056 b 806 521 643 1056 806 817 b 431 -14 806 225 657 -14 m 431 1032 b 215 521 258 1032 215 774 b 431 10 215 268 244 10 b 646 521 617 10 646 268 b 431 1032 646 774 603 1032 "},"1":{"ha":604,"x_min":0,"x_max":0,"o":"m 250 28 l 250 1014 l 93 1014 l 93 1042 l 382 1042 l 382 28 l 535 28 l 535 0 l 69 0 l 69 28 "},"2":{"ha":764,"x_min":0,"x_max":0,"o":"m 56 0 l 56 90 l 358 386 b 547 764 469 497 547 633 b 324 1006 547 922 474 1006 b 104 778 179 1006 110 899 b 165 808 119 796 142 808 b 247 731 206 808 247 779 b 160 642 247 675 208 642 b 71 763 111 642 71 676 b 382 1056 71 925 178 1056 b 686 792 578 1056 686 931 b 529 504 686 653 604 578 l 138 125 l 688 125 l 688 229 l 715 229 l 715 0 "},"3":{"ha":724,"x_min":0,"x_max":0,"o":"m 668 278 b 321 -14 668 97 517 -14 b 35 189 124 -14 35 89 b 118 279 35 246 69 279 b 193 201 160 279 193 251 b 114 125 193 157 154 125 b 83 131 99 125 89 129 b 293 24 90 92 161 24 b 528 278 458 24 528 147 b 254 550 528 381 489 550 l 254 576 b 486 821 475 576 486 732 b 314 1018 486 924 424 1018 b 125 924 211 1018 146 963 b 156 929 131 925 140 929 b 235 853 196 929 235 901 b 156 775 235 797 190 775 b 76 861 114 775 76 804 b 335 1054 76 961 193 1054 b 626 821 489 1054 626 974 b 368 564 626 700 588 590 b 668 278 607 535 668 411 "},"4":{"ha":826,"x_min":0,"x_max":0,"o":"m 764 0 l 396 0 l 396 28 l 528 28 l 528 285 l 49 285 l 549 1042 l 660 1042 l 660 313 l 813 313 l 813 285 l 660 285 l 660 28 l 764 28 m 528 313 l 528 956 l 101 313 "},"5":{"ha":694,"x_min":0,"x_max":0,"o":"m 90 117 b 286 15 104 85 169 15 b 507 319 465 15 507 189 b 319 614 507 478 443 614 b 131 524 215 614 151 556 l 93 524 l 93 1042 l 576 1042 l 576 1118 l 604 1118 l 604 917 l 121 917 l 121 549 b 350 653 154 596 231 653 b 653 319 532 653 653 528 b 300 -14 653 139 510 -14 b 42 179 158 -14 42 79 b 121 265 42 236 79 265 b 200 188 156 265 200 243 b 121 111 200 139 161 111 b 90 117 106 111 99 114 "},"6":{"ha":778,"x_min":0,"x_max":0,"o":"m 736 347 b 408 -14 736 139 618 -14 b 69 431 199 -14 69 139 b 632 1056 69 768 322 1056 l 632 1032 b 217 550 403 1032 233 779 b 432 681 250 629 317 681 b 736 347 572 681 736 583 m 597 347 b 401 640 597 533 525 640 b 211 436 299 640 225 561 l 208 389 b 413 14 208 203 261 14 b 597 347 564 14 597 189 "},"7":{"ha":701,"x_min":0,"x_max":0,"o":"m 233 106 b 401 511 233 215 324 360 b 597 910 456 615 540 789 l 83 910 l 83 806 l 56 806 l 56 1042 l 688 1042 b 429 511 688 1042 524 704 b 354 267 365 381 354 328 b 414 81 354 165 414 144 b 325 -14 414 29 386 -14 b 233 106 271 -14 233 10 "},"8":{"ha":764,"x_min":0,"x_max":0,"o":"m 56 264 b 294 535 56 407 132 510 b 83 778 156 561 83 650 b 382 1056 83 931 186 1056 b 681 778 578 1056 681 931 b 469 535 681 650 608 561 b 708 264 632 510 708 407 b 382 -14 708 97 606 -14 b 56 264 158 -14 56 97 m 222 778 b 382 549 222 661 258 549 b 542 778 506 549 542 661 b 382 1028 542 894 506 1028 b 222 778 258 1028 222 894 m 194 264 b 382 14 194 133 244 14 b 569 264 519 14 569 133 b 382 521 569 394 519 521 b 194 264 244 521 194 394 "},"9":{"ha":778,"x_min":0,"x_max":0,"o":"m 708 611 b 146 -14 708 274 456 -14 l 146 10 b 561 492 375 10 544 263 b 346 361 528 413 461 361 b 42 694 206 361 42 458 b 369 1056 42 903 160 1056 b 708 611 579 1056 708 903 m 181 694 b 376 401 181 508 253 401 b 567 606 479 401 553 481 l 569 653 b 365 1028 569 839 517 1028 b 181 694 214 1028 181 853 "}," ":{"ha":347,"x_min":0,"x_max":0,"o":""},"!":{"ha":444,"x_min":0,"x_max":0,"o":"m 303 915 b 235 289 288 671 235 497 l 207 289 b 139 915 207 497 154 671 l 139 942 b 221 1053 139 1006 156 1053 b 304 942 286 1053 304 1006 b 303 915 304 933 303 925 m 139 69 b 222 153 139 115 176 153 b 306 69 268 153 306 115 b 222 -14 306 24 268 -14 b 139 69 176 -14 139 24 "},"'":{"ha":278,"x_min":0,"x_max":0,"o":"m 207 946 b 153 678 192 842 153 831 l 125 678 b 71 946 125 831 86 842 b 69 971 69 956 69 963 b 139 1056 69 1025 99 1056 b 208 971 179 1056 208 1025 b 207 946 208 963 208 956 "},"\"":{"ha":514,"x_min":0,"x_max":0,"o":"m 443 946 b 389 678 428 842 389 831 l 361 678 b 307 946 361 831 322 842 b 306 971 306 956 306 963 b 375 1056 306 1025 335 1056 b 444 971 415 1056 444 1025 b 443 946 444 963 444 956 m 207 946 b 153 678 192 842 153 831 l 125 678 b 71 946 125 831 86 842 b 69 971 69 956 69 963 b 139 1056 69 1025 99 1056 b 208 971 179 1056 208 1025 b 207 946 208 963 208 956 "},"#":{"ha":875,"x_min":0,"x_max":0,"o":"m 258 368 l 300 694 l 83 694 l 83 722 l 304 722 l 347 1049 l 375 1049 l 332 722 l 582 722 l 625 1047 l 653 1049 l 610 722 l 833 722 l 833 694 l 606 694 l 564 368 l 792 368 l 792 340 l 560 340 l 514 -7 l 486 -8 l 532 340 l 282 340 l 236 -7 l 208 -7 l 254 340 l 42 340 l 42 368 m 536 368 l 579 694 l 328 694 l 286 368 "},"$":{"ha":771,"x_min":0,"x_max":0,"o":"m 632 896 b 458 1019 618 944 551 1004 l 458 606 b 715 292 589 549 715 474 b 458 -17 715 119 618 7 l 458 -111 l 424 -111 l 424 -19 b 396 -21 414 -21 406 -21 b 333 -18 374 -21 353 -19 l 333 -111 l 299 -111 l 299 -12 b 42 201 131 18 42 125 b 139 315 42 265 78 315 b 228 224 181 315 228 285 b 135 133 228 168 182 133 b 90 143 113 133 99 139 b 299 17 126 100 179 36 l 299 501 b 83 785 185 556 83 628 b 299 1043 83 917 176 1010 l 299 1153 l 333 1153 l 333 1050 b 399 1056 354 1054 376 1056 b 424 1054 407 1056 415 1056 l 424 1153 l 458 1153 l 458 1050 b 688 840 583 1028 688 938 b 590 726 688 776 651 726 b 501 818 549 726 501 757 b 594 908 501 874 547 908 b 632 896 610 908 626 900 m 413 1024 b 333 1015 383 1024 357 1021 l 333 660 b 424 621 363 647 393 633 l 424 1024 b 413 1024 419 1024 417 1024 m 181 840 b 299 678 181 763 231 715 l 299 1006 b 181 840 222 976 181 918 m 382 10 b 424 13 396 10 410 11 l 424 447 b 333 486 394 460 364 472 l 333 13 b 382 10 349 11 365 10 m 618 229 b 458 431 618 332 547 386 l 458 18 b 618 229 560 43 618 118 "},"%":{"ha":1389,"x_min":0,"x_max":0,"o":"m 49 750 b 326 1056 49 949 169 1056 b 604 750 483 1056 604 949 b 326 444 604 551 456 444 b 49 750 169 444 49 551 m 1063 1042 l 361 0 l 326 0 l 1028 1042 m 201 750 b 326 472 201 608 224 472 b 451 750 429 472 451 608 b 326 1028 451 892 429 1028 b 201 750 224 1028 201 892 m 785 292 b 1063 597 785 490 906 597 b 1340 292 1219 597 1340 490 b 1063 -14 1340 93 1192 -14 b 785 292 906 -14 785 93 m 938 292 b 1063 14 938 150 960 14 b 1188 292 1165 14 1188 150 b 1063 569 1188 433 1165 569 b 938 292 960 569 938 433 "},"&":{"ha":1117,"x_min":0,"x_max":0,"o":"m 1089 639 l 1089 611 l 965 611 b 779 193 942 463 876 310 l 890 28 l 1068 28 l 1068 0 l 743 0 l 679 96 b 374 -14 592 28 489 -14 b 56 250 189 -14 56 79 b 368 556 56 419 217 479 l 283 681 b 219 851 247 733 219 803 b 499 1056 219 976 338 1056 b 757 868 647 1056 757 979 b 508 594 757 725 636 660 l 763 218 b 938 611 856 326 921 471 l 756 611 l 756 639 m 489 624 b 626 875 568 681 626 756 b 499 1035 626 940 603 1035 b 356 889 392 1035 356 963 b 450 681 356 840 390 769 m 208 264 b 429 42 208 136 299 42 b 660 124 511 42 590 72 l 386 529 b 208 264 288 469 208 396 "},"(":{"ha":503,"x_min":0,"x_max":0,"o":"m 476 -236 b 90 451 250 -139 90 128 b 476 1111 90 775 250 1014 l 489 1088 b 222 451 317 976 222 718 b 489 -212 222 185 317 -101 "},")":{"ha":503,"x_min":0,"x_max":0,"o":"m 26 1111 b 413 424 253 1014 413 747 b 26 -236 413 100 253 -139 l 14 -212 b 281 424 186 -101 281 157 b 14 1088 281 690 186 976 "},"*":{"ha":882,"x_min":0,"x_max":0,"o":"m 371 454 b 425 699 385 553 421 568 b 242 531 315 631 319 592 b 221 517 233 524 228 521 b 113 535 174 489 132 499 b 151 636 92 569 104 610 b 174 649 158 640 164 644 b 411 724 265 685 297 661 b 175 799 297 785 267 761 b 153 810 165 801 160 806 b 114 913 106 836 93 876 b 222 929 133 947 175 957 b 243 917 229 925 235 922 b 428 747 321 854 317 815 b 374 990 424 876 388 892 b 372 1015 372 1000 372 1007 b 442 1100 372 1069 401 1100 b 511 1015 482 1100 511 1069 b 510 990 511 1007 511 1000 b 456 746 496 892 460 876 b 639 914 565 814 561 853 b 660 928 647 921 653 924 b 768 910 707 956 749 946 b 729 808 789 875 776 835 b 707 796 722 804 717 800 b 469 721 615 760 583 783 b 706 646 583 660 614 683 b 728 635 715 643 721 639 b 767 532 775 608 788 568 b 658 515 747 497 706 488 b 638 528 651 519 646 522 b 453 697 560 590 564 629 b 507 454 457 568 493 553 b 508 429 508 444 508 438 b 439 344 508 375 479 344 b 369 429 399 344 369 375 b 371 454 369 438 369 444 "},"+":{"ha":736,"x_min":0,"x_max":0,"o":"m 354 425 l 83 425 l 83 453 l 354 453 l 354 722 l 382 722 l 382 453 l 653 453 l 653 425 l 382 425 l 382 153 l 354 153 "},",":{"ha":299,"x_min":0,"x_max":0,"o":"m 56 68 b 149 150 56 114 96 150 b 246 6 203 150 246 107 b 53 -217 246 -92 178 -217 l 53 -189 b 217 17 139 -189 207 -112 b 129 -14 186 -14 153 -14 b 56 68 83 -14 56 22 "},"-":{"ha":500,"x_min":0,"x_max":0,"o":"m 417 396 l 417 368 l 83 368 l 83 396 "},".":{"ha":278,"x_min":0,"x_max":0,"o":"m 56 69 b 139 153 56 115 93 153 b 222 69 185 153 222 115 b 139 -14 222 24 185 -14 b 56 69 93 -14 56 24 "},"/":{"ha":722,"x_min":0,"x_max":0,"o":"m 667 1083 l 83 -208 l 56 -208 l 639 1083 "},":":{"ha":275,"x_min":0,"x_max":0,"o":"m 56 653 b 139 736 56 699 93 736 b 222 653 185 736 222 699 b 139 569 222 607 185 569 b 56 653 93 569 56 607 m 56 69 b 139 153 56 115 93 153 b 222 69 185 153 222 115 b 139 -14 222 24 185 -14 b 56 69 93 -14 56 24 "},";":{"ha":299,"x_min":0,"x_max":0,"o":"m 56 653 b 139 736 56 699 93 736 b 222 653 185 736 222 699 b 139 569 222 607 185 569 b 56 653 93 569 56 607 m 56 68 b 149 150 56 114 96 150 b 246 6 203 150 246 107 b 53 -217 246 -92 178 -217 l 53 -189 b 217 17 139 -189 207 -112 b 129 -14 186 -14 153 -14 b 56 68 83 -14 56 22 "},"<":{"ha":778,"x_min":0,"x_max":0,"o":"m 83 556 l 694 833 l 694 806 l 107 539 l 694 271 l 694 243 l 83 521 "},"=":{"ha":778,"x_min":0,"x_max":0,"o":"m 694 722 l 694 694 l 83 694 l 83 722 m 694 514 l 694 486 l 83 486 l 83 514 "},">":{"ha":778,"x_min":0,"x_max":0,"o":"m 694 521 l 83 243 l 83 271 l 672 539 l 83 806 l 83 833 l 694 556 "},"?":{"ha":764,"x_min":0,"x_max":0,"o":"m 329 485 b 554 778 478 528 554 649 b 356 1026 554 908 521 1026 b 132 883 239 1026 146 936 b 163 889 138 885 147 889 b 242 813 203 889 242 861 b 163 735 242 757 197 735 b 83 821 121 735 83 764 b 369 1056 83 935 214 1056 b 694 778 565 1056 694 944 b 357 467 694 618 553 479 l 357 290 l 329 290 l 329 485 m 263 69 b 346 153 263 115 300 153 b 429 69 392 153 429 115 b 346 -14 429 24 392 -14 b 263 69 300 -14 263 24 "},"@":{"ha":1403,"x_min":0,"x_max":0,"o":"m 1090 -89 b 582 -297 974 -225 808 -297 b 76 293 328 -297 76 -142 b 813 1097 76 728 406 1097 b 1326 557 1164 1097 1326 811 b 960 94 1326 335 1197 94 b 814 249 856 94 814 174 b 603 97 763 156 683 97 b 394 319 493 97 394 175 b 719 735 394 528 554 735 b 874 526 822 735 867 631 l 919 722 l 1044 722 l 944 292 b 988 126 940 274 881 126 b 1299 557 1158 126 1299 343 b 811 1069 1299 803 1150 1069 b 104 293 424 1069 104 713 b 582 -269 104 -119 340 -269 b 1069 -68 810 -269 944 -204 l 1090 -89 m 853 481 b 742 699 853 539 833 699 b 535 333 639 699 535 506 b 644 135 535 240 556 135 b 838 372 711 135 803 240 l 844 400 b 853 481 850 426 853 453 "},"A":{"ha":1021,"x_min":0,"x_max":0,"o":"m 140 28 l 507 1063 l 535 1063 l 893 28 l 1000 28 l 1000 0 l 597 0 l 597 28 l 742 28 l 644 326 l 279 326 l 175 28 l 333 28 l 333 0 l 28 0 l 28 28 m 289 354 l 636 354 l 468 872 "},"B":{"ha":875,"x_min":0,"x_max":0,"o":"m 28 0 l 28 28 l 153 28 l 153 1014 l 28 1014 l 28 1042 l 431 1042 b 778 785 640 1042 778 965 b 547 536 778 639 697 561 b 819 292 701 517 819 444 b 458 0 819 83 682 0 m 285 1014 l 285 549 l 431 549 b 639 771 536 549 639 606 b 431 1014 639 936 536 1014 m 285 521 l 285 28 l 444 28 b 667 292 564 28 667 126 b 444 521 667 457 564 521 "},"C":{"ha":931,"x_min":0,"x_max":0,"o":"m 875 0 l 854 0 l 793 85 b 535 -14 733 24 642 -14 b 63 521 253 -14 63 211 b 535 1056 63 831 253 1056 b 774 961 628 1056 714 1021 l 840 1042 l 861 1042 l 861 757 l 833 757 b 549 1021 819 913 693 1021 b 222 521 307 1021 222 774 b 549 21 222 268 307 21 b 847 285 721 21 833 143 l 875 285 "},"D":{"ha":972,"x_min":0,"x_max":0,"o":"m 28 0 l 28 28 l 153 28 l 153 1014 l 28 1014 l 28 1042 l 417 1042 b 917 521 726 1042 917 817 b 417 0 917 225 713 0 m 285 1014 l 285 28 l 417 28 b 757 521 672 28 757 268 b 417 1014 757 774 658 1014 "},"E":{"ha":813,"x_min":0,"x_max":0,"o":"m 493 386 b 368 525 493 479 447 525 l 285 525 l 285 28 l 507 28 b 743 313 697 28 743 136 l 771 313 l 771 0 l 28 0 l 28 28 l 153 28 l 153 1014 l 28 1014 l 28 1042 l 757 1042 l 757 757 l 729 757 b 521 1014 729 906 683 1014 l 285 1014 l 285 553 l 368 553 b 493 685 447 553 493 592 l 521 685 l 521 386 l 493 386 "},"F":{"ha":785,"x_min":0,"x_max":0,"o":"m 153 28 l 153 1014 l 28 1014 l 28 1042 l 743 1042 l 743 757 l 715 757 b 507 1014 715 906 669 1014 l 285 1014 l 285 532 l 347 532 b 507 657 468 532 507 564 l 535 657 l 535 372 l 507 372 b 347 504 507 465 468 504 l 285 504 l 285 28 l 424 28 l 424 0 l 28 0 l 28 28 "},"G":{"ha":993,"x_min":0,"x_max":0,"o":"m 979 410 l 979 382 l 896 382 l 896 229 b 514 -14 854 142 740 -14 b 63 521 225 -14 63 211 b 535 1056 63 831 253 1056 b 774 961 628 1056 714 1021 l 840 1042 l 861 1042 l 861 757 l 833 757 b 549 1021 819 913 693 1021 b 222 521 307 1021 222 774 b 514 14 222 268 279 14 b 750 174 686 14 736 143 l 750 382 l 604 382 l 604 410 "},"H":{"ha":1021,"x_min":0,"x_max":0,"o":"m 153 28 l 153 1014 l 28 1014 l 28 1042 l 424 1042 l 424 1014 l 285 1014 l 285 528 l 743 528 l 743 1014 l 604 1014 l 604 1042 l 1000 1042 l 1000 1014 l 875 1014 l 875 28 l 1000 28 l 1000 0 l 604 0 l 604 28 l 743 28 l 743 500 l 285 500 l 285 28 l 424 28 l 424 0 l 28 0 l 28 28 "},"I":{"ha":500,"x_min":0,"x_max":0,"o":"m 181 28 l 181 1014 l 28 1014 l 28 1042 l 479 1042 l 479 1014 l 313 1014 l 313 28 l 479 28 l 479 0 l 28 0 l 28 28 "},"J":{"ha":592,"x_min":0,"x_max":0,"o":"m 571 1042 l 571 1014 l 432 1014 l 432 236 b 182 -42 404 139 350 -42 b 21 118 75 -42 21 49 b 100 208 21 176 58 208 b 178 126 135 208 178 183 b 90 46 178 71 138 46 b 78 47 86 46 81 47 b 182 -14 90 25 118 -14 b 300 264 281 -14 300 69 l 300 1014 l 119 1014 l 119 1042 "},"K":{"ha":944,"x_min":0,"x_max":0,"o":"m 153 28 l 153 1014 l 28 1014 l 28 1042 l 424 1042 l 424 1014 l 285 1014 l 285 467 l 692 1014 l 542 1014 l 542 1042 l 875 1042 l 875 1014 l 733 1014 l 453 636 l 813 28 l 938 28 l 938 0 l 507 0 l 507 28 l 647 28 l 369 524 l 285 410 l 285 28 l 424 28 l 424 0 l 28 0 l 28 28 "},"L":{"ha":792,"x_min":0,"x_max":0,"o":"m 28 0 l 28 28 l 153 28 l 153 1014 l 28 1014 l 28 1042 l 410 1042 l 410 1014 l 285 1014 l 285 28 l 500 28 b 736 313 718 28 736 136 l 764 313 l 764 0 "},"M":{"ha":1146,"x_min":0,"x_max":0,"o":"m 132 28 l 132 1014 l 28 1014 l 28 1042 l 269 1042 l 588 181 l 879 1042 l 1125 1042 l 1125 1014 l 1028 1014 l 1028 28 l 1125 28 l 1125 0 l 785 0 l 785 28 l 896 28 l 896 1000 l 553 -14 l 522 -14 l 163 969 l 163 28 l 260 28 l 260 0 l 35 0 l 35 28 "},"N":{"ha":1014,"x_min":0,"x_max":0,"o":"m 174 28 l 174 1014 l 28 1014 l 28 1042 l 326 1042 l 817 218 l 817 1014 l 664 1014 l 664 1042 l 993 1042 l 993 1014 l 847 1014 l 847 -14 l 799 -14 l 204 979 l 204 28 l 364 28 l 364 0 l 28 0 l 28 28 "},"O":{"ha":1007,"x_min":0,"x_max":0,"o":"m 507 -14 b 63 521 225 -14 63 225 b 507 1056 63 817 239 1056 b 951 521 775 1056 951 817 b 507 -14 951 225 789 -14 m 507 1032 b 222 521 279 1032 222 774 b 507 10 222 268 265 10 b 792 521 749 10 792 268 b 507 1032 792 774 735 1032 "},"P":{"ha":847,"x_min":0,"x_max":0,"o":"m 153 28 l 153 1014 l 28 1014 l 28 1042 l 438 1042 b 799 750 689 1042 799 931 b 438 458 799 569 689 458 l 285 458 l 285 28 l 410 28 l 410 0 l 28 0 l 28 28 m 285 1014 l 285 486 l 438 486 b 646 750 571 486 646 626 b 438 1014 646 874 571 1014 "},"Q":{"ha":1007,"x_min":0,"x_max":0,"o":"m 743 -347 b 424 -7 447 -347 424 -240 b 63 521 193 36 63 256 b 507 1056 63 817 239 1056 b 951 521 775 1056 951 817 b 583 -8 951 253 818 32 b 743 -319 585 -254 614 -319 m 507 1032 b 222 521 279 1032 222 774 b 507 10 222 268 265 10 b 792 521 749 10 792 268 b 507 1032 792 774 735 1032 "},"R":{"ha":965,"x_min":0,"x_max":0,"o":"m 181 28 l 181 1014 l 28 1014 l 28 1042 l 486 1042 b 833 785 696 1042 833 965 b 553 533 833 624 735 547 b 875 26 965 501 710 26 b 943 40 904 26 924 32 l 951 14 b 826 -7 929 1 876 -7 b 479 521 503 -7 821 521 l 313 521 l 313 28 l 465 28 l 465 0 l 28 0 l 28 28 m 313 1014 l 313 549 l 486 549 b 694 785 619 549 694 633 b 486 1014 694 936 619 1014 "},"S":{"ha":778,"x_min":0,"x_max":0,"o":"m 63 -14 l 63 271 l 90 271 b 389 10 118 133 210 10 b 625 229 536 10 625 92 b 76 799 625 514 76 438 b 364 1056 76 951 210 1056 b 588 965 457 1056 535 1026 l 646 1056 l 667 1056 l 667 771 l 639 771 b 378 1024 611 936 508 1024 b 174 840 244 1024 174 950 b 722 278 174 583 722 653 b 403 -21 722 97 599 -21 b 140 88 278 -21 196 21 l 83 -14 "},"T":{"ha":875,"x_min":0,"x_max":0,"o":"m 375 28 l 375 1014 l 236 1014 b 56 729 74 1014 56 906 l 28 729 l 28 1042 l 854 1042 l 854 729 l 826 729 b 646 1014 826 906 808 1014 l 507 1014 l 507 28 l 660 28 l 660 0 l 222 0 l 222 28 "},"U":{"ha":965,"x_min":0,"x_max":0,"o":"m 424 1042 l 424 1014 l 285 1014 l 285 333 b 528 14 285 150 328 14 b 792 319 686 14 792 108 l 792 1014 l 674 1014 l 674 1042 l 944 1042 l 944 1014 l 819 1014 l 819 319 b 500 -21 819 90 719 -21 b 153 319 260 -21 153 79 l 153 1014 l 28 1014 l 28 1042 "},"V":{"ha":1007,"x_min":0,"x_max":0,"o":"m 846 1014 l 688 1014 l 688 1042 l 993 1042 l 993 1014 l 881 1014 l 514 -21 l 486 -21 l 128 1014 l 21 1014 l 21 1042 l 424 1042 l 424 1014 l 279 1014 l 553 169 "},"W":{"ha":1354,"x_min":0,"x_max":0,"o":"m 876 1014 l 761 668 l 906 199 l 1178 1014 l 1063 1014 l 1063 1042 l 1340 1042 l 1340 1014 l 1211 1014 l 869 -14 l 835 -14 l 676 496 l 507 -14 l 472 -14 l 153 1014 l 21 1014 l 21 1042 l 993 1042 l 993 1014 m 660 549 l 515 1014 l 292 1014 l 543 199 m 746 719 l 843 1014 l 654 1014 "},"X":{"ha":1021,"x_min":0,"x_max":0,"o":"m 157 28 l 457 513 l 168 1014 l 69 1014 l 69 1042 l 458 1042 l 458 1014 l 331 1014 l 546 640 l 764 1014 l 625 1014 l 625 1042 l 931 1042 l 931 1014 l 800 1014 l 567 606 l 901 28 l 1007 28 l 1007 0 l 618 0 l 618 28 l 736 28 l 475 482 l 196 28 l 354 28 l 354 0 l 21 0 l 21 28 "},"Y":{"ha":986,"x_min":0,"x_max":0,"o":"m 444 28 l 444 500 l 122 1014 l 21 1014 l 21 1042 l 424 1042 l 424 1014 l 274 1014 l 558 558 l 833 1014 l 681 1014 l 681 1042 l 972 1042 l 972 1014 l 868 1014 l 576 532 l 576 28 l 715 28 l 715 0 l 319 0 l 319 28 "},"Z":{"ha":778,"x_min":0,"x_max":0,"o":"m 715 1042 l 715 1014 l 167 28 l 479 28 b 701 264 669 28 701 88 l 729 264 l 729 0 l 21 0 l 21 28 l 569 1014 l 299 1014 b 76 806 108 1014 76 954 l 49 806 l 49 1042 "},"[":{"ha":451,"x_min":0,"x_max":0,"o":"m 76 -208 l 76 1083 l 410 1083 l 410 1056 l 201 1056 l 201 -181 l 410 -181 l 410 -208 "},"\\":{"ha":722,"x_min":0,"x_max":0,"o":"m 667 -208 l 632 -208 l 56 1083 l 90 1083 "},"]":{"ha":451,"x_min":0,"x_max":0,"o":"m 250 -181 l 250 1056 l 42 1056 l 42 1083 l 375 1083 l 375 -208 l 42 -208 l 42 -181 "},"^":{"ha":757,"x_min":0,"x_max":0,"o":"m 153 861 l 139 875 l 333 1069 l 424 1069 l 618 875 l 604 861 l 378 1004 "},"_":{"ha":778,"x_min":0,"x_max":0,"o":"m 785 -194 l 785 -222 l -7 -222 l -7 -194 "},"`":{"ha":549,"x_min":0,"x_max":0,"o":"m 125 1000 b 76 1049 99 1001 76 1022 b 139 1094 76 1075 100 1104 l 472 1014 l 465 986 l 125 1000 "},"a":{"ha":738,"x_min":0,"x_max":0,"o":"m 453 363 l 453 424 b 331 617 453 517 442 617 b 204 581 269 617 224 597 b 265 511 229 574 265 556 b 183 432 265 456 218 432 b 111 508 142 432 111 458 b 358 650 111 594 232 650 b 578 424 567 650 578 536 l 578 85 b 629 36 578 57 596 36 b 710 99 654 36 683 51 l 731 88 b 581 -14 699 18 640 -14 b 453 101 515 -14 453 19 l 453 114 b 250 -14 422 31 356 -14 b 63 157 140 -14 63 54 b 367 363 63 274 169 363 m 313 36 b 453 251 392 36 453 111 l 453 335 l 367 335 b 204 178 261 335 204 264 b 313 36 204 99 236 36 "},"b":{"ha":824,"x_min":0,"x_max":0,"o":"m 35 1014 l 35 1042 l 257 1042 l 257 481 b 474 651 290 590 364 651 b 768 319 625 651 768 528 b 474 -14 768 111 625 -14 b 257 158 364 -14 290 47 l 257 0 l 35 0 l 35 28 l 132 28 l 132 1014 m 257 319 b 446 28 257 119 347 28 b 622 319 563 28 622 133 b 446 610 622 506 563 610 b 257 319 347 610 257 519 "},"c":{"ha":685,"x_min":0,"x_max":0,"o":"m 563 536 b 394 624 549 575 483 624 b 201 319 229 624 201 450 b 389 18 201 161 238 18 b 592 199 493 18 557 97 l 622 199 b 372 -14 586 78 513 -14 b 56 319 190 -14 56 111 b 381 653 56 500 171 653 b 611 474 522 653 611 574 b 532 388 611 417 574 388 b 453 465 497 388 453 410 b 532 542 453 514 492 542 b 563 536 547 542 557 538 "},"d":{"ha":824,"x_min":0,"x_max":0,"o":"m 789 0 l 567 0 l 567 158 b 350 -14 533 47 460 -14 b 56 319 199 -14 56 111 b 350 651 56 528 199 651 b 567 481 460 651 533 590 l 567 1014 l 469 1014 l 469 1042 l 692 1042 l 692 28 l 789 28 m 567 319 b 378 610 567 519 476 610 b 201 319 261 610 201 506 b 378 28 201 133 261 28 b 567 319 476 28 567 119 "},"e":{"ha":713,"x_min":0,"x_max":0,"o":"m 664 199 b 379 -14 628 78 533 -14 b 56 319 197 -14 56 111 b 375 653 56 528 193 653 b 663 349 582 653 663 500 l 201 349 b 201 319 201 339 201 329 b 396 14 201 161 244 14 b 636 199 518 14 601 97 l 664 199 m 375 625 b 203 376 254 625 211 511 l 515 376 b 375 625 514 471 499 625 "},"f":{"ha":500,"x_min":0,"x_max":0,"o":"m 153 28 l 153 611 l 28 611 l 28 639 l 153 639 l 153 711 b 426 1056 153 893 246 1056 b 597 918 539 1056 597 983 b 518 832 597 861 560 832 b 440 907 483 832 440 851 b 528 985 440 963 481 985 b 540 983 533 985 540 983 b 426 1028 528 1000 499 1028 b 278 750 315 1028 278 926 l 278 639 l 472 639 l 472 611 l 278 611 l 278 28 l 444 28 l 444 0 l 28 0 l 28 28 "},"g":{"ha":801,"x_min":0,"x_max":0,"o":"m 79 103 b 232 235 79 175 147 215 b 69 438 146 258 69 322 b 318 653 69 590 206 653 b 524 565 392 653 475 626 b 664 646 564 626 624 646 b 774 547 735 646 774 600 b 703 464 774 485 738 464 b 633 533 668 464 633 488 b 700 599 633 572 661 599 b 731 590 715 599 725 593 b 664 618 717 613 694 618 b 542 539 625 618 575 600 b 567 438 557 511 567 478 b 318 222 567 285 431 222 b 278 225 304 222 292 224 b 174 147 225 213 174 189 b 308 96 174 96 232 96 b 407 97 357 96 368 97 b 625 -114 511 97 625 75 b 333 -361 625 -282 486 -361 b 35 -174 176 -361 35 -306 b 194 -6 35 -64 128 -17 b 79 103 122 8 79 40 m 201 438 b 318 250 201 335 208 250 b 435 438 400 250 435 335 b 318 625 435 540 400 625 b 201 438 236 625 201 540 m 167 -142 b 342 -329 167 -236 208 -329 b 558 -135 479 -329 558 -262 b 417 -12 558 -60 507 -12 l 286 -12 b 225 -10 264 -12 244 -11 b 167 -142 172 -44 167 -100 "},"h":{"ha":813,"x_min":0,"x_max":0,"o":"m 132 28 l 132 1014 l 35 1014 l 35 1042 l 257 1042 l 257 476 b 483 653 285 572 349 653 b 681 443 646 653 681 564 l 681 28 l 778 28 l 778 0 l 458 0 l 458 28 l 556 28 l 556 428 b 443 611 556 544 521 611 b 257 310 307 611 257 453 l 257 28 l 354 28 l 354 0 l 35 0 l 35 28 "},"i":{"ha":403,"x_min":0,"x_max":0,"o":"m 104 972 b 188 1056 104 1018 142 1056 b 271 972 233 1056 271 1018 b 188 889 271 926 233 889 b 104 972 142 889 104 926 m 139 28 l 139 611 l 42 611 l 42 639 l 264 639 l 264 28 l 361 28 l 361 0 l 42 0 l 42 28 "},"j":{"ha":399,"x_min":0,"x_max":0,"o":"m 128 972 b 211 1056 128 1018 165 1056 b 294 972 257 1056 294 1018 b 211 889 294 926 257 889 b 128 972 165 889 128 926 m 285 -17 b 67 -361 285 -199 247 -361 b -104 -210 -46 -361 -104 -289 b -25 -124 -104 -153 -67 -124 b 53 -199 10 -124 53 -143 b -35 -276 53 -254 13 -276 b -47 -275 -40 -276 -47 -275 b 60 -332 -47 -292 -1 -332 b 160 28 185 -332 160 -149 l 160 611 l 35 611 l 35 639 l 285 639 "},"k":{"ha":814,"x_min":0,"x_max":0,"o":"m 160 28 l 160 1014 l 35 1014 l 35 1042 l 285 1042 l 285 371 l 589 611 l 436 611 l 436 639 l 746 639 l 746 611 l 635 611 l 389 413 l 717 28 l 793 28 l 793 0 l 464 0 l 464 28 l 560 28 l 285 350 l 285 28 l 382 28 l 382 0 l 35 0 l 35 28 "},"l":{"ha":444,"x_min":0,"x_max":0,"o":"m 160 28 l 160 1014 l 35 1014 l 35 1042 l 285 1042 l 285 28 l 410 28 l 410 0 l 35 0 l 35 28 "},"m":{"ha":1181,"x_min":0,"x_max":0,"o":"m 132 28 l 132 611 l 35 611 l 35 639 l 257 639 l 257 478 b 469 653 285 572 344 653 b 649 503 581 653 633 592 b 851 653 674 586 729 653 b 1049 443 986 653 1049 564 l 1049 28 l 1146 28 l 1146 0 l 826 0 l 826 28 l 924 28 l 924 428 b 811 611 924 544 889 611 b 653 310 682 611 653 453 l 653 28 l 750 28 l 750 0 l 431 0 l 431 28 l 528 28 l 528 428 b 429 611 528 544 507 611 b 257 310 307 611 257 453 l 257 28 l 354 28 l 354 0 l 35 0 l 35 28 "},"n":{"ha":813,"x_min":0,"x_max":0,"o":"m 132 28 l 132 611 l 35 611 l 35 639 l 257 639 l 257 465 b 483 653 286 565 353 653 b 681 443 632 653 681 564 l 681 28 l 778 28 l 778 0 l 458 0 l 458 28 l 556 28 l 556 428 b 443 611 556 544 521 611 b 257 310 324 611 257 453 l 257 28 l 354 28 l 354 0 l 35 0 l 35 28 "},"o":{"ha":747,"x_min":0,"x_max":0,"o":"m 56 319 b 374 653 56 500 178 653 b 692 319 569 653 692 500 b 374 -14 692 139 569 -14 b 56 319 178 -14 56 139 m 201 319 b 374 14 201 189 222 14 b 546 319 525 14 546 189 b 374 625 546 450 525 625 b 201 319 222 625 201 450 "},"p":{"ha":824,"x_min":0,"x_max":0,"o":"m 132 -319 l 132 611 l 35 611 l 35 639 l 257 639 l 257 481 b 474 651 290 590 364 651 b 768 319 625 651 768 528 b 474 -14 768 111 625 -14 b 257 158 364 -14 290 47 l 257 -319 l 354 -319 l 354 -347 l 35 -347 l 35 -319 m 257 319 b 446 28 257 119 347 28 b 622 319 563 28 622 133 b 446 610 622 506 563 610 b 257 319 347 610 257 519 "},"q":{"ha":824,"x_min":0,"x_max":0,"o":"m 789 -347 l 469 -347 l 469 -319 l 567 -319 l 567 158 b 350 -14 533 47 460 -14 b 56 319 199 -14 56 111 b 350 651 56 528 199 651 b 567 481 460 651 533 590 l 567 639 l 789 639 l 789 611 l 692 611 l 692 -319 l 789 -319 m 567 319 b 378 610 567 519 476 610 b 201 319 261 610 201 506 b 378 28 201 133 261 28 b 567 319 476 28 567 119 "},"r":{"ha":578,"x_min":0,"x_max":0,"o":"m 132 28 l 132 611 l 35 611 l 35 639 l 257 639 l 257 493 b 431 653 282 585 335 653 b 558 540 494 653 558 608 b 478 456 558 493 531 456 b 396 532 432 456 396 481 b 483 611 396 586 447 611 b 431 625 469 622 451 625 b 257 310 299 625 257 446 l 257 28 l 354 28 l 354 0 l 35 0 l 35 28 "},"s":{"ha":597,"x_min":0,"x_max":0,"o":"m 63 -14 l 63 181 l 90 181 b 297 17 118 93 199 17 b 461 136 381 17 461 51 b 79 465 461 313 79 207 b 274 651 79 554 142 651 b 433 592 340 651 396 626 l 482 653 l 503 653 l 503 458 l 475 458 b 275 621 461 532 388 621 b 146 515 222 621 146 588 b 549 197 146 376 549 444 b 311 -14 549 74 446 -14 b 133 51 240 -14 178 11 l 83 -14 "},"t":{"ha":451,"x_min":0,"x_max":0,"o":"m 438 142 b 249 -10 404 53 333 -10 b 122 154 135 -10 122 78 l 122 611 l 21 611 l 21 639 l 122 639 l 122 778 b 247 819 164 778 219 799 l 247 639 l 396 639 l 396 611 l 247 611 l 247 128 b 300 40 247 58 263 40 b 413 151 339 40 388 90 l 438 142 "},"u":{"ha":813,"x_min":0,"x_max":0,"o":"m 778 28 l 778 0 l 556 0 l 556 174 b 329 -14 526 74 460 -14 b 132 196 181 -14 132 75 l 132 611 l 35 611 l 35 639 l 257 639 l 257 211 b 369 28 257 94 292 28 b 556 329 489 28 556 186 l 556 611 l 458 611 l 458 639 l 681 639 l 681 28 "},"v":{"ha":763,"x_min":0,"x_max":0,"o":"m 611 611 l 486 611 l 486 639 l 756 639 l 756 611 l 649 611 l 399 -14 l 365 -14 l 108 611 l 7 611 l 7 639 l 369 639 l 369 611 l 247 611 l 426 143 "},"w":{"ha":1063,"x_min":0,"x_max":0,"o":"m 569 653 l 604 653 l 756 172 l 901 611 l 758 611 l 758 639 l 1056 639 l 1056 611 l 936 611 l 728 -14 l 693 -14 l 529 458 l 344 -14 l 310 -14 l 107 611 l 7 611 l 7 639 l 356 639 l 356 611 l 236 611 l 375 153 "},"x":{"ha":783,"x_min":0,"x_max":0,"o":"m 114 28 l 340 303 l 131 611 l 35 611 l 35 639 l 376 639 l 376 611 l 283 611 l 425 404 l 596 611 l 472 611 l 472 639 l 742 639 l 742 611 l 635 611 l 442 378 l 681 28 l 763 28 l 763 0 l 442 0 l 442 28 l 528 28 l 358 276 l 153 28 l 297 28 l 297 0 l 21 0 l 21 28 "},"y":{"ha":775,"x_min":0,"x_max":0,"o":"m 388 -6 l 94 611 l 7 611 l 7 639 l 356 639 l 356 611 l 235 611 l 454 149 l 657 611 l 525 611 l 525 639 l 782 639 l 782 611 l 694 611 l 306 -275 b 206 -367 281 -332 258 -367 b 128 -292 171 -367 128 -344 b 204 -214 128 -246 160 -214 b 276 -258 240 -214 269 -235 "},"z":{"ha":625,"x_min":0,"x_max":0,"o":"m 272 611 b 94 400 114 611 94 540 l 67 400 l 67 639 l 568 639 l 568 611 l 178 28 l 353 28 b 563 256 543 28 563 83 l 590 256 l 590 0 l 28 0 l 28 28 l 417 611 l 272 611 "},"{":{"ha":378,"x_min":0,"x_max":0,"o":"m 336 -208 b 76 -14 135 -208 76 -137 b 160 326 76 176 160 239 b 76 424 160 383 118 410 l 76 451 b 160 550 118 465 160 493 b 76 890 160 638 76 700 b 336 1083 76 1014 135 1083 l 336 1056 b 206 899 250 1056 206 986 b 253 599 206 793 253 738 b 101 438 253 493 190 463 b 253 278 190 413 253 383 b 206 -22 253 139 206 83 b 336 -181 206 -110 250 -181 l 336 -208 "},"|":{"ha":319,"x_min":0,"x_max":0,"o":"m 174 1083 l 174 -347 l 146 -347 l 146 1083 "},"}":{"ha":378,"x_min":0,"x_max":0,"o":"m 42 -181 b 172 -24 128 -181 172 -111 b 125 276 172 82 125 138 b 276 438 125 382 188 413 b 125 597 188 463 125 492 b 172 897 125 736 172 792 b 42 1056 172 985 128 1056 l 42 1083 b 301 889 243 1083 301 1013 b 218 549 301 699 218 636 b 301 451 218 492 260 465 l 301 424 b 218 325 260 410 218 382 b 301 -15 218 238 301 175 b 42 -208 301 -139 243 -208 "},"~":{"ha":956,"x_min":0,"x_max":0,"o":"m 296 607 b 167 476 222 607 167 576 l 139 476 b 346 708 139 636 236 708 b 646 578 499 708 513 578 b 789 708 733 578 789 608 l 817 708 b 610 476 817 549 719 476 b 296 607 433 476 439 607 "},"¡":{"ha":443,"x_min":0,"x_max":0,"o":"m 304 653 b 221 569 304 607 267 569 b 138 653 175 569 138 607 b 221 736 138 699 175 736 b 304 653 267 736 304 699 m 140 -193 b 208 433 156 51 208 225 l 236 433 b 304 -193 236 225 289 51 l 304 -219 b 222 -331 304 -283 288 -331 b 139 -219 157 -331 139 -283 b 140 -193 139 -211 140 -203 "},"¢":{"ha":685,"x_min":0,"x_max":0,"o":"m 563 536 b 394 624 549 575 483 624 l 390 624 l 390 18 b 592 199 493 19 557 97 l 622 199 b 390 -14 588 83 519 -6 l 390 -118 l 363 -118 l 363 -14 b 56 319 186 -10 56 115 b 363 653 56 494 164 644 l 363 771 l 390 771 l 390 653 b 611 474 526 649 611 571 b 532 388 611 417 574 388 b 453 465 497 388 453 410 b 532 542 453 514 492 542 b 563 536 547 542 557 538 m 201 319 b 363 19 201 171 233 36 l 363 621 b 201 319 225 600 201 442 "},"£":{"ha":868,"x_min":0,"x_max":0,"o":"m 164 764 b 533 1056 164 958 310 1056 b 850 828 758 1056 850 942 b 768 742 850 771 810 742 b 689 819 733 742 689 764 b 768 896 689 868 728 896 b 806 889 783 896 800 890 b 561 1028 806 926 733 1028 b 318 778 368 1028 318 881 b 369 563 318 693 347 626 l 646 563 l 646 535 l 379 535 b 396 444 389 504 396 475 b 129 21 396 215 154 190 b 308 135 160 93 213 135 b 608 88 447 135 503 88 b 808 218 696 88 808 104 l 836 218 b 600 -42 836 17 724 -42 b 260 42 410 -42 347 42 b 128 -28 203 42 142 14 l 100 -28 b 276 363 74 165 276 274 b 233 535 276 429 256 483 l 21 535 l 21 563 l 221 563 b 164 764 192 624 164 683 "},"¥":{"ha":986,"x_min":0,"x_max":0,"o":"m 444 28 l 444 292 l 215 292 l 215 319 l 444 319 l 444 500 l 215 500 l 215 528 l 426 528 l 122 1014 l 21 1014 l 21 1042 l 424 1042 l 424 1014 l 274 1014 l 558 558 l 833 1014 l 681 1014 l 681 1042 l 972 1042 l 972 1014 l 868 1014 l 576 532 l 576 528 l 826 528 l 826 500 l 576 500 l 576 319 l 826 319 l 826 292 l 576 292 l 576 28 l 715 28 l 715 0 l 319 0 l 319 28 "},"¦":{"ha":306,"x_min":0,"x_max":0,"o":"m 167 1083 l 167 568 l 139 568 l 139 1083 m 167 231 l 167 -347 l 139 -347 l 139 231 "},"§":{"ha":621,"x_min":0,"x_max":0,"o":"m 568 225 b 297 -14 568 81 457 -14 b 42 196 175 -14 42 35 b 125 296 42 253 76 296 b 200 218 167 296 200 268 b 121 142 200 174 161 142 b 81 151 106 142 86 150 b 297 14 99 60 197 14 b 488 154 440 14 488 89 b 53 493 488 315 53 294 b 169 685 53 585 122 647 b 86 844 121 721 86 768 b 315 1056 86 989 211 1056 b 557 850 438 1056 557 997 b 474 750 557 793 522 750 b 399 828 432 750 399 778 b 478 904 399 872 438 904 b 518 894 493 904 513 896 b 315 1028 507 968 429 1028 b 146 894 228 1028 146 974 b 579 535 146 733 579 747 b 475 383 579 467 532 424 b 568 225 529 351 568 304 m 172 579 b 447 399 172 464 331 454 b 474 463 463 417 474 438 b 196 668 474 581 310 600 b 172 579 185 646 172 615 "},"©":{"ha":1208,"x_min":0,"x_max":0,"o":"m 69 521 b 604 1056 69 817 308 1056 b 1139 521 900 1056 1139 817 b 604 -14 1139 225 900 -14 b 69 521 308 -14 69 225 m 97 521 b 604 14 97 242 325 14 b 1111 521 883 14 1111 242 b 604 1028 1111 800 883 1028 b 97 521 325 1028 97 800 m 819 208 l 807 208 l 771 260 b 615 200 735 222 679 200 b 332 521 446 200 332 335 b 615 842 332 707 446 842 b 758 785 671 842 722 821 l 799 833 l 811 833 l 811 663 l 794 663 b 624 821 786 756 710 821 b 428 521 479 821 428 672 b 624 221 428 369 479 221 b 803 379 726 221 794 294 l 819 379 "},"ª":{"ha":490,"x_min":0,"x_max":0,"o":"m 433 722 b 343 661 414 681 379 661 b 267 731 304 661 267 681 l 267 738 b 144 661 247 688 208 661 b 32 764 79 661 32 701 b 214 888 32 833 96 888 l 267 888 l 267 924 b 193 1039 267 979 260 1039 b 117 1018 156 1039 129 1028 b 154 976 132 1014 154 1003 b 104 929 154 943 125 929 b 61 975 79 929 61 944 b 210 1060 61 1026 133 1060 b 342 924 335 1060 342 992 l 342 721 b 372 692 342 704 351 692 b 421 729 388 692 404 700 l 433 722 m 182 692 b 267 821 229 692 267 736 l 267 871 l 214 871 b 117 776 151 871 117 828 b 182 692 117 729 136 692 "},"«":{"ha":965,"x_min":0,"x_max":0,"o":"m 896 215 l 882 201 l 424 521 l 424 556 l 882 875 l 896 861 l 599 539 m 507 215 l 493 201 l 35 521 l 35 556 l 493 875 l 507 861 l 210 539 "},"¬":{"ha":675,"x_min":0,"x_max":0,"o":"m 83 826 l 83 854 l 592 854 l 592 574 l 564 574 l 564 826 "},"®":{"ha":1208,"x_min":0,"x_max":0,"o":"m 69 521 b 604 1056 69 817 308 1056 b 1139 521 900 1056 1139 817 b 604 -14 1139 225 900 -14 b 69 521 308 -14 69 225 m 97 521 b 604 14 97 242 325 14 b 1111 521 883 14 1111 242 b 604 1028 1111 800 883 1028 b 97 521 325 1028 97 800 m 439 222 l 439 814 l 347 814 l 347 831 l 622 831 b 831 676 749 831 831 785 b 663 525 831 579 771 533 b 856 221 910 506 757 221 b 896 229 874 221 885 225 l 901 214 b 826 201 888 207 857 201 b 618 518 632 201 824 518 l 518 518 l 518 222 l 610 222 l 610 206 l 347 206 l 347 222 m 518 814 l 518 535 l 622 535 b 747 676 703 535 747 586 b 622 814 747 767 703 814 "},"¯":{"ha":558,"x_min":0,"x_max":0,"o":"m 475 674 l 475 646 l 83 646 l 83 674 "},"°":{"ha":444,"x_min":0,"x_max":0,"o":"m 56 944 b 222 1111 56 1036 131 1111 b 389 944 314 1111 389 1036 b 222 778 389 853 314 778 b 56 944 131 778 56 853 m 132 944 b 222 854 132 893 171 854 b 313 944 274 854 313 893 b 222 1035 313 996 274 1035 b 132 944 171 1035 132 996 "},"±":{"ha":736,"x_min":0,"x_max":0,"o":"m 354 481 l 83 481 l 83 508 l 354 508 l 354 778 l 382 778 l 382 508 l 653 508 l 653 481 l 382 481 l 382 208 l 354 208 m 653 28 l 653 0 l 83 0 l 83 28 "},"µ":{"ha":813,"x_min":0,"x_max":0,"o":"m 376 -171 b 458 -264 422 -171 458 -211 b 328 -361 458 -318 429 -361 b 147 -168 231 -361 147 -293 l 147 94 b 132 196 136 125 132 158 l 132 611 l 35 611 l 35 639 l 257 639 l 257 211 b 369 28 257 94 292 28 b 556 329 489 28 556 186 l 556 611 l 458 611 l 458 639 l 681 639 l 681 28 l 778 28 l 778 0 l 556 0 l 556 174 b 329 -14 526 74 460 -14 b 175 46 256 -14 206 8 l 175 -168 b 332 -339 175 -282 240 -331 b 294 -244 294 -307 294 -269 b 376 -171 294 -199 331 -171 "},"·":{"ha":275,"x_min":0,"x_max":0,"o":"m 56 556 b 139 639 56 601 93 639 b 222 556 185 639 222 601 b 139 472 222 510 185 472 b 56 556 93 472 56 510 "},"º":{"ha":747,"x_min":0,"x_max":0,"o":"m 192 860 b 382 1060 192 968 265 1060 b 574 860 500 1060 574 968 b 382 660 574 751 500 660 b 192 860 265 660 192 751 m 279 860 b 382 676 279 782 292 676 b 486 860 474 676 486 782 b 382 1043 486 938 474 1043 b 279 860 292 1043 279 938 "},"»":{"ha":965,"x_min":0,"x_max":0,"o":"m 69 861 l 83 875 l 542 556 l 542 521 l 83 201 l 69 215 l 367 538 m 458 861 l 472 875 l 931 556 l 931 521 l 472 201 l 458 215 l 756 538 "},"¼":{"ha":890,"x_min":0,"x_max":0,"o":"m 139 511 l 139 1103 l 44 1103 l 44 1119 l 218 1119 l 218 511 l 310 511 l 310 494 l 31 494 l 31 511 m 731 903 l 83 -139 l 56 -139 l 703 903 m 833 -143 l 613 -143 l 613 -126 l 692 -126 l 692 28 l 404 28 l 704 482 l 771 482 l 771 44 l 863 44 l 863 28 l 771 28 l 771 -126 l 833 -126 m 692 44 l 692 431 l 436 44 "},"½":{"ha":931,"x_min":0,"x_max":0,"o":"m 139 511 l 139 1103 l 44 1103 l 44 1119 l 218 1119 l 218 511 l 310 511 l 310 494 l 31 494 l 31 511 m 731 903 l 83 -139 l 56 -139 l 703 903 m 507 -140 l 507 -86 l 689 92 b 801 318 756 158 801 240 b 668 463 801 413 758 463 b 536 326 581 463 539 399 b 572 344 546 338 558 344 b 622 299 597 344 622 328 b 569 244 622 265 599 244 b 517 317 540 244 517 265 b 703 493 517 415 581 493 b 885 335 821 493 885 418 b 792 163 885 251 836 207 l 556 -65 l 886 -65 l 886 -3 l 903 -3 l 903 -140 "},"¾":{"ha":974,"x_min":0,"x_max":0,"o":"m 408 658 b 200 483 408 550 317 483 b 28 606 81 483 28 544 b 78 660 28 639 49 660 b 122 613 103 660 122 643 b 75 567 122 586 100 567 b 57 569 67 567 60 569 b 183 506 61 547 104 506 b 324 658 282 506 324 581 b 160 822 324 719 300 822 l 160 838 b 299 985 292 838 299 931 b 196 1103 299 1046 261 1103 b 82 1046 133 1103 94 1069 b 100 1049 85 1047 92 1049 b 147 1003 125 1049 147 1032 b 100 957 147 969 121 957 b 53 1008 75 957 53 974 b 208 1124 53 1068 122 1124 b 383 985 300 1124 383 1076 b 228 829 383 913 360 846 b 408 658 371 813 408 739 m 814 903 l 167 -139 l 139 -139 l 786 903 m 917 -143 l 696 -143 l 696 -126 l 775 -126 l 775 28 l 488 28 l 788 482 l 854 482 l 854 44 l 946 44 l 946 28 l 854 28 l 854 -126 l 917 -126 m 775 44 l 775 431 l 519 44 "},"¿":{"ha":764,"x_min":0,"x_max":0,"o":"m 494 653 b 411 569 494 607 457 569 b 328 653 365 569 328 607 b 411 736 328 699 365 736 b 494 653 457 736 494 699 m 428 238 b 203 -56 279 194 203 74 b 401 -304 203 -186 236 -304 b 625 -161 518 -304 611 -214 b 594 -167 619 -162 610 -167 b 515 -90 554 -167 515 -139 b 594 -12 515 -35 560 -12 b 674 -99 636 -12 674 -42 b 388 -333 674 -212 543 -333 b 63 -56 192 -333 63 -222 b 400 256 63 104 204 243 l 400 432 l 428 432 l 428 238 "},"À":{"ha":1021,"x_min":0,"x_max":0,"o":"m 306 1160 b 257 1208 279 1161 257 1182 b 319 1254 257 1235 281 1264 l 653 1174 l 646 1146 l 306 1160 m 140 28 l 507 1063 l 535 1063 l 893 28 l 1000 28 l 1000 0 l 597 0 l 597 28 l 742 28 l 644 326 l 279 326 l 175 28 l 333 28 l 333 0 l 28 0 l 28 28 m 289 354 l 636 354 l 468 872 "},"Á":{"ha":1021,"x_min":0,"x_max":0,"o":"m 424 1146 l 417 1174 l 750 1254 b 813 1208 789 1264 813 1235 b 764 1160 813 1182 790 1161 m 140 28 l 507 1063 l 535 1063 l 893 28 l 1000 28 l 1000 0 l 597 0 l 597 28 l 742 28 l 644 326 l 279 326 l 175 28 l 333 28 l 333 0 l 28 0 l 28 28 m 289 354 l 636 354 l 468 872 "},"Â":{"ha":1021,"x_min":0,"x_max":0,"o":"m 350 1146 l 336 1160 l 489 1313 l 579 1313 l 732 1160 l 718 1146 l 533 1250 m 140 28 l 507 1063 l 535 1063 l 893 28 l 1000 28 l 1000 0 l 597 0 l 597 28 l 742 28 l 644 326 l 279 326 l 175 28 l 333 28 l 333 0 l 28 0 l 28 28 m 289 354 l 636 354 l 468 872 "},"Ã":{"ha":1021,"x_min":0,"x_max":0,"o":"m 408 1256 b 321 1160 363 1256 321 1232 l 293 1160 b 431 1336 293 1278 363 1336 b 661 1226 528 1336 597 1226 b 749 1322 707 1226 749 1250 l 776 1322 b 653 1146 776 1190 735 1146 b 408 1256 560 1146 482 1256 m 140 28 l 507 1063 l 535 1063 l 893 28 l 1000 28 l 1000 0 l 597 0 l 597 28 l 742 28 l 644 326 l 279 326 l 175 28 l 333 28 l 333 0 l 28 0 l 28 28 m 289 354 l 636 354 l 468 872 "},"Ä":{"ha":1021,"x_min":0,"x_max":0,"o":"m 590 1229 b 674 1313 590 1275 628 1313 b 757 1229 719 1313 757 1275 b 674 1146 757 1183 719 1146 b 590 1229 628 1146 590 1183 m 313 1229 b 396 1313 313 1275 350 1313 b 479 1229 442 1313 479 1275 b 396 1146 479 1183 442 1146 b 313 1229 350 1146 313 1183 m 140 28 l 507 1063 l 535 1063 l 893 28 l 1000 28 l 1000 0 l 597 0 l 597 28 l 742 28 l 644 326 l 279 326 l 175 28 l 333 28 l 333 0 l 28 0 l 28 28 m 289 354 l 636 354 l 468 872 "},"Å":{"ha":1021,"x_min":0,"x_max":0,"o":"m 410 1260 b 535 1385 410 1331 464 1385 b 660 1260 606 1385 660 1331 b 535 1135 660 1189 606 1135 b 410 1260 464 1135 410 1189 m 458 1260 b 535 1163 458 1201 483 1163 b 611 1260 586 1163 611 1201 b 535 1357 611 1318 586 1357 b 458 1260 483 1357 458 1318 m 140 28 l 507 1063 l 535 1063 l 893 28 l 1000 28 l 1000 0 l 597 0 l 597 28 l 742 28 l 644 326 l 279 326 l 175 28 l 333 28 l 333 0 l 28 0 l 28 28 m 289 354 l 636 354 l 468 872 "},"Æ":{"ha":1389,"x_min":0,"x_max":0,"o":"m 135 28 l 729 1042 l 1333 1042 l 1333 757 l 1306 757 b 1097 1014 1306 906 1260 1014 l 861 1014 l 861 553 l 944 553 b 1069 685 1024 553 1069 592 l 1097 685 l 1097 386 l 1069 386 b 944 525 1069 479 1024 525 l 861 525 l 861 28 l 1083 28 b 1319 313 1274 28 1319 136 l 1347 313 l 1347 0 l 604 0 l 604 28 l 729 28 l 729 326 l 346 326 l 174 28 l 326 28 l 326 0 l 21 0 l 21 28 m 729 354 l 729 986 l 363 354 "},"Ç":{"ha":931,"x_min":0,"x_max":0,"o":"m 572 -253 b 417 -168 572 -179 507 -168 l 532 -14 b 63 521 251 -12 63 213 b 535 1056 63 831 253 1056 b 774 961 628 1056 714 1021 l 840 1042 l 861 1042 l 861 757 l 833 757 b 549 1021 819 913 693 1021 b 222 521 307 1021 222 774 b 549 21 222 268 307 21 b 847 285 721 21 833 143 l 875 285 l 875 0 l 854 0 l 793 85 b 572 -12 740 31 664 -4 l 497 -112 b 671 -225 597 -117 671 -147 b 436 -364 671 -294 604 -364 l 436 -336 b 572 -253 518 -336 572 -300 "},"È":{"ha":813,"x_min":0,"x_max":0,"o":"m 176 1153 b 128 1201 150 1154 128 1175 b 190 1247 128 1228 151 1257 l 524 1167 l 517 1139 l 176 1153 m 493 386 b 368 525 493 479 447 525 l 285 525 l 285 28 l 507 28 b 743 313 697 28 743 136 l 771 313 l 771 0 l 28 0 l 28 28 l 153 28 l 153 1014 l 28 1014 l 28 1042 l 757 1042 l 757 757 l 729 757 b 521 1014 729 906 683 1014 l 285 1014 l 285 553 l 368 553 b 493 685 447 553 493 592 l 521 685 l 521 386 l 493 386 "},"É":{"ha":813,"x_min":0,"x_max":0,"o":"m 296 1139 l 289 1167 l 622 1247 b 685 1201 661 1257 685 1228 b 636 1153 685 1175 663 1154 m 493 386 b 368 525 493 479 447 525 l 285 525 l 285 28 l 507 28 b 743 313 697 28 743 136 l 771 313 l 771 0 l 28 0 l 28 28 l 153 28 l 153 1014 l 28 1014 l 28 1042 l 757 1042 l 757 757 l 729 757 b 521 1014 729 906 683 1014 l 285 1014 l 285 553 l 368 553 b 493 685 447 553 493 592 l 521 685 l 521 386 l 493 386 "},"Ê":{"ha":813,"x_min":0,"x_max":0,"o":"m 222 1139 l 208 1153 l 361 1306 l 451 1306 l 604 1153 l 590 1139 l 406 1243 m 493 386 b 368 525 493 479 447 525 l 285 525 l 285 28 l 507 28 b 743 313 697 28 743 136 l 771 313 l 771 0 l 28 0 l 28 28 l 153 28 l 153 1014 l 28 1014 l 28 1042 l 757 1042 l 757 757 l 729 757 b 521 1014 729 906 683 1014 l 285 1014 l 285 553 l 368 553 b 493 685 447 553 493 592 l 521 685 l 521 386 l 493 386 "},"Ë":{"ha":813,"x_min":0,"x_max":0,"o":"m 463 1222 b 546 1306 463 1268 500 1306 b 629 1222 592 1306 629 1268 b 546 1139 629 1176 592 1139 b 463 1222 500 1139 463 1176 m 185 1222 b 268 1306 185 1268 222 1306 b 351 1222 314 1306 351 1268 b 268 1139 351 1176 314 1139 b 185 1222 222 1139 185 1176 m 493 386 b 368 525 493 479 447 525 l 285 525 l 285 28 l 507 28 b 743 313 697 28 743 136 l 771 313 l 771 0 l 28 0 l 28 28 l 153 28 l 153 1014 l 28 1014 l 28 1042 l 757 1042 l 757 757 l 729 757 b 521 1014 729 906 683 1014 l 285 1014 l 285 553 l 368 553 b 493 685 447 553 493 592 l 521 685 l 521 386 l 493 386 "},"Ì":{"ha":500,"x_min":0,"x_max":0,"o":"m 38 1153 b -11 1201 11 1154 -11 1175 b 51 1247 -11 1228 13 1257 l 385 1167 l 378 1139 l 38 1153 m 181 28 l 181 1014 l 28 1014 l 28 1042 l 479 1042 l 479 1014 l 313 1014 l 313 28 l 479 28 l 479 0 l 28 0 l 28 28 "},"Í":{"ha":500,"x_min":0,"x_max":0,"o":"m 157 1139 l 150 1167 l 483 1247 b 546 1201 522 1257 546 1228 b 497 1153 546 1175 524 1154 m 181 28 l 181 1014 l 28 1014 l 28 1042 l 479 1042 l 479 1014 l 313 1014 l 313 28 l 479 28 l 479 0 l 28 0 l 28 28 "},"Î":{"ha":500,"x_min":0,"x_max":0,"o":"m 83 1139 l 69 1153 l 222 1306 l 313 1306 l 465 1153 l 451 1139 l 267 1243 m 181 28 l 181 1014 l 28 1014 l 28 1042 l 479 1042 l 479 1014 l 313 1014 l 313 28 l 479 28 l 479 0 l 28 0 l 28 28 "},"Ï":{"ha":500,"x_min":0,"x_max":0,"o":"m 324 1222 b 407 1306 324 1268 361 1306 b 490 1222 453 1306 490 1268 b 407 1139 490 1176 453 1139 b 324 1222 361 1139 324 1176 m 46 1222 b 129 1306 46 1268 83 1306 b 213 1222 175 1306 213 1268 b 129 1139 213 1176 175 1139 b 46 1222 83 1139 46 1176 m 181 28 l 181 1014 l 28 1014 l 28 1042 l 479 1042 l 479 1014 l 313 1014 l 313 28 l 479 28 l 479 0 l 28 0 l 28 28 "},"Ð":{"ha":972,"x_min":0,"x_max":0,"o":"m 28 0 l 28 28 l 153 28 l 153 507 l 69 507 l 69 535 l 153 535 l 153 1014 l 28 1014 l 28 1042 l 417 1042 b 917 521 726 1042 917 817 b 417 0 917 225 713 0 m 285 507 l 285 28 l 417 28 b 757 521 672 28 757 268 b 417 1014 757 774 658 1014 l 285 1014 l 285 535 l 403 535 l 403 507 "},"Ñ":{"ha":1014,"x_min":0,"x_max":0,"o":"m 397 1249 b 310 1153 351 1249 310 1225 l 282 1153 b 419 1329 282 1271 351 1329 b 650 1219 517 1329 586 1219 b 738 1315 696 1219 738 1243 l 765 1315 b 642 1139 765 1183 724 1139 b 397 1249 549 1139 471 1249 m 174 28 l 174 1014 l 28 1014 l 28 1042 l 326 1042 l 817 218 l 817 1014 l 664 1014 l 664 1042 l 993 1042 l 993 1014 l 847 1014 l 847 -14 l 799 -14 l 204 979 l 204 28 l 364 28 l 364 0 l 28 0 l 28 28 "},"Ò":{"ha":1007,"x_min":0,"x_max":0,"o":"m 361 1194 b 313 1243 335 1196 313 1217 b 375 1289 313 1269 336 1299 l 708 1208 l 701 1181 l 361 1194 m 507 -14 b 63 521 225 -14 63 225 b 507 1056 63 817 239 1056 b 951 521 775 1056 951 817 b 507 -14 951 225 789 -14 m 507 1032 b 222 521 279 1032 222 774 b 507 10 222 268 265 10 b 792 521 749 10 792 268 b 507 1032 792 774 735 1032 "},"Ó":{"ha":1007,"x_min":0,"x_max":0,"o":"m 340 1181 l 333 1208 l 667 1289 b 729 1243 706 1299 729 1269 b 681 1194 729 1217 707 1196 m 507 -14 b 63 521 225 -14 63 225 b 507 1056 63 817 239 1056 b 951 521 775 1056 951 817 b 507 -14 951 225 789 -14 m 507 1032 b 222 521 279 1032 222 774 b 507 10 222 268 265 10 b 792 521 749 10 792 268 b 507 1032 792 774 735 1032 "},"Ô":{"ha":1007,"x_min":0,"x_max":0,"o":"m 336 1139 l 322 1153 l 475 1306 l 565 1306 l 718 1153 l 704 1139 l 519 1243 m 507 -14 b 63 521 225 -14 63 225 b 507 1056 63 817 239 1056 b 951 521 775 1056 951 817 b 507 -14 951 225 789 -14 m 507 1032 b 222 521 279 1032 222 774 b 507 10 222 268 265 10 b 792 521 749 10 792 268 b 507 1032 792 774 735 1032 "},"Õ":{"ha":1007,"x_min":0,"x_max":0,"o":"m 394 1249 b 307 1153 349 1249 307 1225 l 279 1153 b 417 1329 279 1271 349 1329 b 647 1219 514 1329 583 1219 b 735 1315 693 1219 735 1243 l 763 1315 b 639 1139 763 1183 721 1139 b 394 1249 546 1139 468 1249 m 507 -14 b 63 521 225 -14 63 225 b 507 1056 63 817 239 1056 b 951 521 775 1056 951 817 b 507 -14 951 225 789 -14 m 507 1032 b 222 521 279 1032 222 774 b 507 10 222 268 265 10 b 792 521 749 10 792 268 b 507 1032 792 774 735 1032 "},"Ö":{"ha":1007,"x_min":0,"x_max":0,"o":"m 576 1222 b 660 1306 576 1268 614 1306 b 743 1222 706 1306 743 1268 b 660 1139 743 1176 706 1139 b 576 1222 614 1139 576 1176 m 299 1222 b 382 1306 299 1268 336 1306 b 465 1222 428 1306 465 1268 b 382 1139 465 1176 428 1139 b 299 1222 336 1139 299 1176 m 507 -14 b 63 521 225 -14 63 225 b 507 1056 63 817 239 1056 b 951 521 775 1056 951 817 b 507 -14 951 225 789 -14 m 507 1032 b 222 521 279 1032 222 774 b 507 10 222 268 265 10 b 792 521 749 10 792 268 b 507 1032 792 774 735 1032 "},"×":{"ha":736,"x_min":0,"x_max":0,"o":"m 347 439 l 157 629 l 176 649 l 367 458 l 558 650 l 578 631 l 386 439 l 579 246 l 560 226 l 367 419 l 175 228 l 156 247 "},"Ø":{"ha":1007,"x_min":0,"x_max":0,"o":"m 507 -14 b 336 21 443 -14 386 -1 l 264 -139 l 236 -139 l 313 31 b 63 521 151 114 63 301 b 507 1056 63 817 239 1056 b 742 982 597 1056 676 1029 l 819 1153 l 847 1153 l 763 967 b 951 521 882 871 951 707 b 507 -14 951 225 789 -14 m 507 1032 b 222 521 279 1032 222 774 b 333 78 222 347 243 171 l 713 915 b 507 1032 668 986 603 1032 m 792 521 b 728 888 792 654 776 789 l 354 60 b 507 10 393 28 443 10 b 792 521 749 10 792 268 "},"Ù":{"ha":965,"x_min":0,"x_max":0,"o":"m 340 1181 b 292 1229 314 1182 292 1203 b 354 1275 292 1256 315 1285 l 688 1194 l 681 1167 l 340 1181 m 424 1042 l 424 1014 l 285 1014 l 285 333 b 528 14 285 150 328 14 b 792 319 686 14 792 108 l 792 1014 l 674 1014 l 674 1042 l 944 1042 l 944 1014 l 819 1014 l 819 319 b 500 -21 819 90 719 -21 b 153 319 260 -21 153 79 l 153 1014 l 28 1014 l 28 1042 "},"Ú":{"ha":965,"x_min":0,"x_max":0,"o":"m 319 1167 l 313 1194 l 646 1275 b 708 1229 685 1285 708 1256 b 660 1181 708 1203 686 1182 m 424 1042 l 424 1014 l 285 1014 l 285 333 b 528 14 285 150 328 14 b 792 319 686 14 792 108 l 792 1014 l 674 1014 l 674 1042 l 944 1042 l 944 1014 l 819 1014 l 819 319 b 500 -21 819 90 719 -21 b 153 319 260 -21 153 79 l 153 1014 l 28 1014 l 28 1042 "},"Û":{"ha":965,"x_min":0,"x_max":0,"o":"m 317 1139 l 303 1153 l 456 1306 l 546 1306 l 699 1153 l 685 1139 l 500 1243 m 424 1042 l 424 1014 l 285 1014 l 285 333 b 528 14 285 150 328 14 b 792 319 686 14 792 108 l 792 1014 l 674 1014 l 674 1042 l 944 1042 l 944 1014 l 819 1014 l 819 319 b 500 -21 819 90 719 -21 b 153 319 260 -21 153 79 l 153 1014 l 28 1014 l 28 1042 "},"Ü":{"ha":965,"x_min":0,"x_max":0,"o":"m 556 1222 b 639 1306 556 1268 593 1306 b 722 1222 685 1306 722 1268 b 639 1139 722 1176 685 1139 b 556 1222 593 1139 556 1176 m 278 1222 b 361 1306 278 1268 315 1306 b 444 1222 407 1306 444 1268 b 361 1139 444 1176 407 1139 b 278 1222 315 1139 278 1176 m 424 1042 l 424 1014 l 285 1014 l 285 333 b 528 14 285 150 328 14 b 792 319 686 14 792 108 l 792 1014 l 674 1014 l 674 1042 l 944 1042 l 944 1014 l 819 1014 l 819 319 b 500 -21 819 90 719 -21 b 153 319 260 -21 153 79 l 153 1014 l 28 1014 l 28 1042 "},"Ý":{"ha":986,"x_min":0,"x_max":0,"o":"m 371 1167 l 364 1194 l 697 1275 b 760 1229 736 1285 760 1256 b 711 1181 760 1203 738 1182 m 444 28 l 444 500 l 122 1014 l 21 1014 l 21 1042 l 424 1042 l 424 1014 l 274 1014 l 558 558 l 833 1014 l 681 1014 l 681 1042 l 972 1042 l 972 1014 l 868 1014 l 576 532 l 576 28 l 715 28 l 715 0 l 319 0 l 319 28 "},"Þ":{"ha":840,"x_min":0,"x_max":0,"o":"m 146 28 l 146 1014 l 21 1014 l 21 1042 l 403 1042 l 403 1014 l 278 1014 l 278 833 l 431 833 b 792 542 682 833 792 722 b 431 250 792 361 682 250 l 278 250 l 278 28 l 403 28 l 403 0 l 21 0 l 21 28 m 278 806 l 278 278 l 431 278 b 639 542 564 278 639 418 b 431 806 639 665 564 806 "},"ß":{"ha":946,"x_min":0,"x_max":0,"o":"m 146 28 l 146 682 b 518 1056 146 922 292 1056 b 849 807 717 1056 849 936 b 582 563 849 688 779 588 b 890 222 828 531 890 382 b 626 -14 890 83 767 -14 b 449 189 528 -14 449 61 b 535 279 449 246 486 279 b 610 201 576 279 610 251 b 531 125 610 157 571 125 b 483 142 515 125 500 128 b 619 14 490 75 547 14 b 750 222 729 14 750 133 b 476 550 750 353 711 550 l 476 576 b 708 793 656 576 708 704 b 518 1032 708 893 663 1032 b 271 668 332 1032 271 865 l 271 28 l 396 28 l 396 0 l 21 0 l 21 28 "},"à":{"ha":738,"x_min":0,"x_max":0,"o":"m 185 778 b 136 826 158 779 136 800 b 199 872 136 853 160 882 l 532 792 l 525 764 l 185 778 m 453 363 l 453 424 b 331 617 453 517 442 617 b 204 581 269 617 224 597 b 265 511 229 574 265 556 b 183 432 265 456 218 432 b 111 508 142 432 111 458 b 358 650 111 594 232 650 b 578 424 567 650 578 536 l 578 85 b 629 36 578 57 596 36 b 710 99 654 36 683 51 l 731 88 b 581 -14 699 18 640 -14 b 453 101 515 -14 453 19 l 453 114 b 250 -14 422 31 356 -14 b 63 157 140 -14 63 54 b 367 363 63 274 169 363 m 313 36 b 453 251 392 36 453 111 l 453 335 l 367 335 b 204 178 261 335 204 264 b 313 36 204 99 236 36 "},"á":{"ha":738,"x_min":0,"x_max":0,"o":"m 178 764 l 171 792 l 504 872 b 567 826 543 882 567 853 b 518 778 567 800 544 779 m 453 363 l 453 424 b 331 617 453 517 442 617 b 204 581 269 617 224 597 b 265 511 229 574 265 556 b 183 432 265 456 218 432 b 111 508 142 432 111 458 b 358 650 111 594 232 650 b 578 424 567 650 578 536 l 578 85 b 629 36 578 57 596 36 b 710 99 654 36 683 51 l 731 88 b 581 -14 699 18 640 -14 b 453 101 515 -14 453 19 l 453 114 b 250 -14 422 31 356 -14 b 63 157 140 -14 63 54 b 367 363 63 274 169 363 m 313 36 b 453 251 392 36 453 111 l 453 335 l 367 335 b 204 178 261 335 204 264 b 313 36 204 99 236 36 "},"â":{"ha":738,"x_min":0,"x_max":0,"o":"m 189 736 l 175 750 l 328 903 l 418 903 l 571 750 l 557 736 l 372 840 m 453 363 l 453 424 b 331 617 453 517 442 617 b 204 581 269 617 224 597 b 265 511 229 574 265 556 b 183 432 265 456 218 432 b 111 508 142 432 111 458 b 358 650 111 594 232 650 b 578 424 567 650 578 536 l 578 85 b 629 36 578 57 596 36 b 710 99 654 36 683 51 l 731 88 b 581 -14 699 18 640 -14 b 453 101 515 -14 453 19 l 453 114 b 250 -14 422 31 356 -14 b 63 157 140 -14 63 54 b 367 363 63 274 169 363 m 313 36 b 453 251 392 36 453 111 l 453 335 l 367 335 b 204 178 261 335 204 264 b 313 36 204 99 236 36 "},"ã":{"ha":738,"x_min":0,"x_max":0,"o":"m 246 846 b 158 750 200 846 158 822 l 131 750 b 268 926 131 868 200 926 b 499 817 365 926 435 817 b 586 913 544 817 586 840 l 614 913 b 490 736 614 781 572 736 b 246 846 397 736 319 846 m 453 363 l 453 424 b 331 617 453 517 442 617 b 204 581 269 617 224 597 b 265 511 229 574 265 556 b 183 432 265 456 218 432 b 111 508 142 432 111 458 b 358 650 111 594 232 650 b 578 424 567 650 578 536 l 578 85 b 629 36 578 57 596 36 b 710 99 654 36 683 51 l 731 88 b 581 -14 699 18 640 -14 b 453 101 515 -14 453 19 l 453 114 b 250 -14 422 31 356 -14 b 63 157 140 -14 63 54 b 367 363 63 274 169 363 m 313 36 b 453 251 392 36 453 111 l 453 335 l 367 335 b 204 178 261 335 204 264 b 313 36 204 99 236 36 "},"ä":{"ha":738,"x_min":0,"x_max":0,"o":"m 428 819 b 511 903 428 865 465 903 b 594 819 557 903 594 865 b 511 736 594 774 557 736 b 428 819 465 736 428 774 m 150 819 b 233 903 150 865 188 903 b 317 819 279 903 317 865 b 233 736 317 774 279 736 b 150 819 188 736 150 774 m 453 363 l 453 424 b 331 617 453 517 442 617 b 204 581 269 617 224 597 b 265 511 229 574 265 556 b 183 432 265 456 218 432 b 111 508 142 432 111 458 b 358 650 111 594 232 650 b 578 424 567 650 578 536 l 578 85 b 629 36 578 57 596 36 b 710 99 654 36 683 51 l 731 88 b 581 -14 699 18 640 -14 b 453 101 515 -14 453 19 l 453 114 b 250 -14 422 31 356 -14 b 63 157 140 -14 63 54 b 367 363 63 274 169 363 m 313 36 b 453 251 392 36 453 111 l 453 335 l 367 335 b 204 178 261 335 204 264 b 313 36 204 99 236 36 "},"å":{"ha":738,"x_min":0,"x_max":0,"o":"m 247 861 b 372 986 247 932 301 986 b 497 861 443 986 497 932 b 372 736 497 790 443 736 b 247 861 301 736 247 790 m 296 861 b 372 764 296 803 321 764 b 449 861 424 764 449 803 b 372 958 449 919 424 958 b 296 861 321 958 296 919 m 453 363 l 453 424 b 331 617 453 517 442 617 b 204 581 269 617 224 597 b 265 511 229 574 265 556 b 183 432 265 456 218 432 b 111 508 142 432 111 458 b 358 650 111 594 232 650 b 578 424 567 650 578 536 l 578 85 b 629 36 578 57 596 36 b 710 99 654 36 683 51 l 731 88 b 581 -14 699 18 640 -14 b 453 101 515 -14 453 19 l 453 114 b 250 -14 422 31 356 -14 b 63 157 140 -14 63 54 b 367 363 63 274 169 363 m 313 36 b 453 251 392 36 453 111 l 453 335 l 367 335 b 204 178 261 335 204 264 b 313 36 204 99 236 36 "},"æ":{"ha":1060,"x_min":0,"x_max":0,"o":"m 97 508 b 344 650 97 594 218 650 b 518 560 449 650 496 613 b 736 653 568 619 643 653 b 1024 349 943 653 1024 500 l 563 349 b 563 319 563 339 563 329 b 757 14 563 161 606 14 b 997 199 879 14 963 97 l 1025 199 b 740 -14 989 78 894 -14 b 493 118 629 -14 543 33 b 278 -14 458 32 386 -14 b 49 157 168 -14 49 26 b 353 363 49 274 156 363 l 439 363 l 439 424 b 317 617 439 517 428 617 b 190 581 256 617 210 597 b 251 511 215 574 251 556 b 169 432 251 456 204 432 b 97 508 128 432 97 458 m 876 376 b 736 625 875 471 860 625 b 564 376 615 625 572 511 l 876 376 m 306 14 b 439 251 385 14 439 111 l 439 335 l 353 335 b 190 178 247 335 190 264 b 306 14 190 85 229 14 "},"ç":{"ha":685,"x_min":0,"x_max":0,"o":"m 410 -253 b 254 -168 410 -179 344 -168 l 369 -14 b 56 319 189 -12 56 113 b 381 653 56 500 171 653 b 611 474 522 653 611 574 b 532 388 611 417 574 388 b 453 465 497 388 453 410 b 532 542 453 514 492 542 b 563 536 547 542 557 538 b 394 624 549 575 483 624 b 201 319 229 624 201 450 b 389 18 201 161 238 18 b 592 199 493 18 557 97 l 622 199 b 411 -11 589 89 526 4 l 335 -112 b 508 -225 435 -117 508 -147 b 274 -364 508 -294 442 -364 l 274 -336 b 410 -253 356 -336 410 -300 "},"è":{"ha":713,"x_min":0,"x_max":0,"o":"m 229 792 b 181 840 203 793 181 814 b 243 886 181 867 204 896 l 576 806 l 569 778 l 229 792 m 664 199 b 379 -14 628 78 533 -14 b 56 319 197 -14 56 111 b 375 653 56 528 193 653 b 663 349 582 653 663 500 l 201 349 b 201 319 201 339 201 329 b 396 14 201 161 244 14 b 636 199 518 14 601 97 l 664 199 m 375 625 b 203 376 254 625 211 511 l 515 376 b 375 625 514 471 499 625 "},"é":{"ha":713,"x_min":0,"x_max":0,"o":"m 208 778 l 201 806 l 535 886 b 597 840 574 896 597 867 b 549 792 597 814 575 793 m 664 199 b 379 -14 628 78 533 -14 b 56 319 197 -14 56 111 b 375 653 56 528 193 653 b 663 349 582 653 663 500 l 201 349 b 201 319 201 339 201 329 b 396 14 201 161 244 14 b 636 199 518 14 601 97 l 664 199 m 375 625 b 203 376 254 625 211 511 l 515 376 b 375 625 514 471 499 625 "},"ê":{"ha":713,"x_min":0,"x_max":0,"o":"m 206 736 l 192 750 l 344 903 l 435 903 l 588 750 l 574 736 l 389 840 m 664 199 b 379 -14 628 78 533 -14 b 56 319 197 -14 56 111 b 375 653 56 528 193 653 b 663 349 582 653 663 500 l 201 349 b 201 319 201 339 201 329 b 396 14 201 161 244 14 b 636 199 518 14 601 97 l 664 199 m 375 625 b 203 376 254 625 211 511 l 515 376 b 375 625 514 471 499 625 "},"ë":{"ha":713,"x_min":0,"x_max":0,"o":"m 444 819 b 528 903 444 865 482 903 b 611 819 574 903 611 865 b 528 736 611 774 574 736 b 444 819 482 736 444 774 m 167 819 b 250 903 167 865 204 903 b 333 819 296 903 333 865 b 250 736 333 774 296 736 b 167 819 204 736 167 774 m 664 199 b 379 -14 628 78 533 -14 b 56 319 197 -14 56 111 b 375 653 56 528 193 653 b 663 349 582 653 663 500 l 201 349 b 201 319 201 339 201 329 b 396 14 201 161 244 14 b 636 199 518 14 601 97 l 664 199 m 375 625 b 203 376 254 625 211 511 l 515 376 b 375 625 514 471 499 625 "},"ì":{"ha":375,"x_min":0,"x_max":0,"o":"m -35 778 b -83 826 -61 779 -83 800 b -21 872 -83 853 -60 882 l 313 792 l 306 764 l -35 778 m 125 28 l 125 611 l 28 611 l 28 639 l 250 639 l 250 28 l 347 28 l 347 0 l 28 0 l 28 28 "},"í":{"ha":375,"x_min":0,"x_max":0,"o":"m 0 764 l -7 792 l 326 872 b 389 826 365 882 389 853 b 340 778 389 800 367 779 m 125 28 l 125 611 l 28 611 l 28 639 l 250 639 l 250 28 l 347 28 l 347 0 l 28 0 l 28 28 "},"î":{"ha":375,"x_min":0,"x_max":0,"o":"m -44 736 l -58 750 l 94 903 l 185 903 l 338 750 l 324 736 l 139 840 m 125 28 l 125 611 l 28 611 l 28 639 l 250 639 l 250 28 l 347 28 l 347 0 l 28 0 l 28 28 "},"ï":{"ha":375,"x_min":0,"x_max":0,"o":"m 208 861 b 292 944 208 907 246 944 b 375 861 338 944 375 907 b 292 778 375 815 338 778 b 208 861 246 778 208 815 m -69 861 b 14 944 -69 907 -32 944 b 97 861 60 944 97 907 b 14 778 97 815 60 778 b -69 861 -32 778 -69 815 m 125 28 l 125 611 l 28 611 l 28 639 l 250 639 l 250 28 l 347 28 l 347 0 l 28 0 l 28 28 "},"ð":{"ha":778,"x_min":0,"x_max":0,"o":"m 708 431 b 369 -14 708 139 579 -14 b 42 347 160 -14 42 139 b 346 681 42 583 206 681 b 561 550 461 681 528 629 b 456 847 554 653 517 760 l 153 847 l 153 875 l 435 875 b 146 1032 363 968 261 1032 l 146 1056 b 539 875 299 1056 438 986 l 736 875 l 736 847 l 563 847 b 708 431 653 736 708 589 m 181 347 b 365 14 181 189 214 14 b 569 389 517 14 569 203 l 567 436 b 376 640 553 561 479 640 b 181 347 253 640 181 533 "},"ñ":{"ha":813,"x_min":0,"x_max":0,"o":"m 293 846 b 206 750 247 846 206 822 l 178 750 b 315 926 178 868 247 926 b 546 817 413 926 482 817 b 633 913 592 817 633 840 l 661 913 b 538 736 661 781 619 736 b 293 846 444 736 367 846 m 132 28 l 132 611 l 35 611 l 35 639 l 257 639 l 257 465 b 483 653 286 565 353 653 b 681 443 632 653 681 564 l 681 28 l 778 28 l 778 0 l 458 0 l 458 28 l 556 28 l 556 428 b 443 611 556 544 521 611 b 257 310 324 611 257 453 l 257 28 l 354 28 l 354 0 l 35 0 l 35 28 "},"ò":{"ha":747,"x_min":0,"x_max":0,"o":"m 242 778 b 193 826 215 779 193 800 b 256 872 193 853 217 882 l 589 792 l 582 764 l 242 778 m 56 319 b 374 653 56 500 178 653 b 692 319 569 653 692 500 b 374 -14 692 139 569 -14 b 56 319 178 -14 56 139 m 201 319 b 374 14 201 189 222 14 b 546 319 525 14 546 189 b 374 625 546 450 525 625 b 201 319 222 625 201 450 "},"ó":{"ha":747,"x_min":0,"x_max":0,"o":"m 221 764 l 214 792 l 547 872 b 610 826 586 882 610 853 b 561 778 610 800 588 779 m 56 319 b 374 653 56 500 178 653 b 692 319 569 653 692 500 b 374 -14 692 139 569 -14 b 56 319 178 -14 56 139 m 201 319 b 374 14 201 189 222 14 b 546 319 525 14 546 189 b 374 625 546 450 525 625 b 201 319 222 625 201 450 "},"ô":{"ha":747,"x_min":0,"x_max":0,"o":"m 203 736 l 189 750 l 342 903 l 432 903 l 585 750 l 571 736 l 386 840 m 56 319 b 374 653 56 500 178 653 b 692 319 569 653 692 500 b 374 -14 692 139 569 -14 b 56 319 178 -14 56 139 m 201 319 b 374 14 201 189 222 14 b 546 319 525 14 546 189 b 374 625 546 450 525 625 b 201 319 222 625 201 450 "},"õ":{"ha":747,"x_min":0,"x_max":0,"o":"m 261 846 b 174 750 215 846 174 822 l 146 750 b 283 926 146 868 215 926 b 514 817 381 926 450 817 b 601 913 560 817 601 840 l 629 913 b 506 736 629 781 588 736 b 261 846 413 736 335 846 m 56 319 b 374 653 56 500 178 653 b 692 319 569 653 692 500 b 374 -14 692 139 569 -14 b 56 319 178 -14 56 139 m 201 319 b 374 14 201 189 222 14 b 546 319 525 14 546 189 b 374 625 546 450 525 625 b 201 319 222 625 201 450 "},"ö":{"ha":747,"x_min":0,"x_max":0,"o":"m 443 819 b 526 903 443 865 481 903 b 610 819 572 903 610 865 b 526 736 610 774 572 736 b 443 819 481 736 443 774 m 165 819 b 249 903 165 865 203 903 b 332 819 294 903 332 865 b 249 736 332 774 294 736 b 165 819 203 736 165 774 m 56 319 b 374 653 56 500 178 653 b 692 319 569 653 692 500 b 374 -14 692 139 569 -14 b 56 319 178 -14 56 139 m 201 319 b 374 14 201 189 222 14 b 546 319 525 14 546 189 b 374 625 546 450 525 625 b 201 319 222 625 201 450 "},"÷":{"ha":778,"x_min":0,"x_max":0,"o":"m 306 785 b 389 868 306 831 343 868 b 472 785 435 868 472 831 b 389 701 472 739 435 701 b 306 785 343 701 306 739 m 708 563 l 708 535 l 69 535 l 69 563 m 306 292 b 389 375 306 338 343 375 b 472 292 435 375 472 338 b 389 208 472 246 435 208 b 306 292 343 208 306 246 "},"ø":{"ha":747,"x_min":0,"x_max":0,"o":"m 56 319 b 374 653 56 500 178 653 b 538 610 436 653 492 638 l 653 804 l 681 804 l 557 597 b 692 319 643 538 692 433 b 374 -14 692 139 569 -14 b 215 26 314 -14 260 0 l 97 -171 l 69 -171 l 194 39 b 56 319 107 99 56 203 m 201 319 b 236 107 201 250 207 168 l 501 551 b 374 625 476 596 436 625 b 201 319 222 625 201 450 m 546 319 b 514 526 546 386 540 465 l 249 82 b 374 14 275 42 314 14 b 546 319 525 14 546 189 "},"ù":{"ha":813,"x_min":0,"x_max":0,"o":"m 253 792 b 204 840 226 793 204 814 b 267 886 204 867 228 896 l 600 806 l 593 778 l 253 792 m 778 28 l 778 0 l 556 0 l 556 174 b 329 -14 526 74 460 -14 b 132 196 181 -14 132 75 l 132 611 l 35 611 l 35 639 l 257 639 l 257 211 b 369 28 257 94 292 28 b 556 329 489 28 556 186 l 556 611 l 458 611 l 458 639 l 681 639 l 681 28 "},"ú":{"ha":813,"x_min":0,"x_max":0,"o":"m 206 764 l 199 792 l 532 872 b 594 826 571 882 594 853 b 546 778 594 800 572 779 m 778 28 l 778 0 l 556 0 l 556 174 b 329 -14 526 74 460 -14 b 132 196 181 -14 132 75 l 132 611 l 35 611 l 35 639 l 257 639 l 257 211 b 369 28 257 94 292 28 b 556 329 489 28 556 186 l 556 611 l 458 611 l 458 639 l 681 639 l 681 28 "},"û":{"ha":813,"x_min":0,"x_max":0,"o":"m 188 736 l 174 750 l 326 903 l 417 903 l 569 750 l 556 736 l 371 840 m 778 28 l 778 0 l 556 0 l 556 174 b 329 -14 526 74 460 -14 b 132 196 181 -14 132 75 l 132 611 l 35 611 l 35 639 l 257 639 l 257 211 b 369 28 257 94 292 28 b 556 329 489 28 556 186 l 556 611 l 458 611 l 458 639 l 681 639 l 681 28 "},"ü":{"ha":813,"x_min":0,"x_max":0,"o":"m 483 819 b 567 903 483 865 521 903 b 650 819 613 903 650 865 b 567 736 650 774 613 736 b 483 819 521 736 483 774 m 206 819 b 289 903 206 865 243 903 b 372 819 335 903 372 865 b 289 736 372 774 335 736 b 206 819 243 736 206 774 m 778 28 l 778 0 l 556 0 l 556 174 b 329 -14 526 74 460 -14 b 132 196 181 -14 132 75 l 132 611 l 35 611 l 35 639 l 257 639 l 257 211 b 369 28 257 94 292 28 b 556 329 489 28 556 186 l 556 611 l 458 611 l 458 639 l 681 639 l 681 28 "},"ý":{"ha":775,"x_min":0,"x_max":0,"o":"m 297 778 l 290 806 l 624 886 b 686 840 663 896 686 867 b 638 792 686 814 664 793 m 388 -6 l 94 611 l 7 611 l 7 639 l 356 639 l 356 611 l 235 611 l 454 149 l 657 611 l 525 611 l 525 639 l 782 639 l 782 611 l 694 611 l 306 -275 b 206 -367 281 -332 258 -367 b 128 -292 171 -367 128 -344 b 204 -214 128 -246 160 -214 b 276 -258 240 -214 269 -235 "},"þ":{"ha":796,"x_min":0,"x_max":0,"o":"m 118 -319 l 118 1014 l 21 1014 l 21 1042 l 243 1042 l 243 481 b 460 651 276 590 350 651 b 754 319 611 651 754 528 b 460 -14 754 111 611 -14 b 243 158 350 -14 276 47 l 243 -319 l 340 -319 l 340 -347 l 21 -347 l 21 -319 m 243 319 b 432 28 243 119 333 28 b 608 319 549 28 608 133 b 432 610 608 506 549 610 b 243 319 333 610 243 519 "},"ÿ":{"ha":775,"x_min":0,"x_max":0,"o":"m 478 861 b 561 944 478 907 515 944 b 644 861 607 944 644 907 b 561 778 644 815 607 778 b 478 861 515 778 478 815 m 200 861 b 283 944 200 907 238 944 b 367 861 329 944 367 907 b 283 778 367 815 329 778 b 200 861 238 778 200 815 m 388 -6 l 94 611 l 7 611 l 7 639 l 356 639 l 356 611 l 235 611 l 454 149 l 657 611 l 525 611 l 525 639 l 782 639 l 782 611 l 694 611 l 306 -275 b 206 -367 281 -332 258 -367 b 128 -292 171 -367 128 -344 b 204 -214 128 -246 160 -214 b 276 -258 240 -214 269 -235 "},"ı":{"ha":375,"x_min":0,"x_max":0,"o":"m 125 28 l 125 611 l 28 611 l 28 639 l 250 639 l 250 28 l 347 28 l 347 0 l 28 0 l 28 28 "},"‘":{"ha":299,"x_min":0,"x_max":0,"o":"m 243 799 b 150 717 243 753 203 717 b 53 861 96 717 53 760 b 246 1083 53 958 121 1083 l 246 1056 b 82 850 160 1056 92 979 b 169 881 113 881 146 881 b 243 799 215 881 243 844 "},"’":{"ha":299,"x_min":0,"x_max":0,"o":"m 56 988 b 149 1069 56 1033 96 1069 b 246 925 203 1069 246 1026 b 53 703 246 828 178 703 l 53 731 b 217 936 139 731 207 807 b 129 906 186 906 153 906 b 56 988 83 906 56 942 "},"ń":{"ha":813,"x_min":0,"x_max":0,"o":"m 308 736 l 301 764 l 635 844 b 697 799 674 854 697 825 b 649 750 697 772 675 751 m 132 28 l 132 611 l 35 611 l 35 639 l 257 639 l 257 465 b 483 653 286 565 353 653 b 681 443 632 653 681 564 l 681 28 l 778 28 l 778 0 l 458 0 l 458 28 l 556 28 l 556 428 b 443 611 556 544 521 611 b 257 310 324 611 257 453 l 257 28 l 354 28 l 354 0 l 35 0 l 35 28 "},"ŭ":{"ha":813,"x_min":0,"x_max":0,"o":"m 233 943 b 358 840 233 875 283 840 b 483 943 433 840 483 875 l 511 943 b 358 764 511 858 483 764 b 206 943 233 764 206 858 l 233 943 m 778 28 l 778 0 l 556 0 l 556 174 b 329 -14 526 74 460 -14 b 132 196 181 -14 132 75 l 132 611 l 35 611 l 35 639 l 257 639 l 257 211 b 369 28 257 94 292 28 b 556 329 489 28 556 186 l 556 611 l 458 611 l 458 639 l 681 639 l 681 28 "},"đ":{"ha":824,"x_min":0,"x_max":0,"o":"m 789 0 l 567 0 l 567 158 b 350 -14 533 47 460 -14 b 56 319 199 -14 56 111 b 350 651 56 528 199 651 b 567 481 460 651 533 590 l 567 778 l 444 778 l 444 806 l 567 806 l 567 1014 l 469 1014 l 469 1042 l 692 1042 l 692 806 l 800 806 l 800 778 l 692 778 l 692 28 l 789 28 m 567 319 b 378 610 567 519 476 610 b 201 319 261 610 201 506 b 378 28 201 133 261 28 b 567 319 476 28 567 119 "},"ȓ":{"ha":578,"x_min":0,"x_max":0,"o":"m 164 736 b 317 915 164 821 192 915 b 469 736 442 915 469 821 l 442 736 b 317 839 442 804 392 839 b 192 736 242 839 192 804 m 132 28 l 132 611 l 35 611 l 35 639 l 257 639 l 257 493 b 431 653 282 585 335 653 b 558 540 494 653 558 608 b 478 456 558 493 531 456 b 396 532 432 456 396 481 b 483 611 396 586 447 611 b 431 625 469 622 451 625 b 257 310 299 625 257 446 l 257 28 l 354 28 l 354 0 l 35 0 l 35 28 "},"ċ":{"ha":685,"x_min":0,"x_max":0,"o":"m 311 819 b 394 903 311 865 349 903 b 478 819 440 903 478 865 b 394 736 478 774 440 736 b 311 819 349 736 311 774 m 563 536 b 394 624 549 575 483 624 b 201 319 229 624 201 450 b 389 18 201 161 238 18 b 592 199 493 18 557 97 l 622 199 b 372 -14 586 78 513 -14 b 56 319 190 -14 56 111 b 381 653 56 500 171 653 b 611 474 522 653 611 574 b 532 388 611 417 574 388 b 453 465 497 388 453 410 b 532 542 453 514 492 542 b 563 536 547 542 557 538 "},"―":{"ha":794,"x_min":0,"x_max":0,"o":"m 711 396 l 711 368 l 83 368 l 83 396 "},"Ŀ":{"ha":792,"x_min":0,"x_max":0,"o":"m 28 0 l 28 28 l 153 28 l 153 1014 l 28 1014 l 28 1042 l 410 1042 l 410 1014 l 285 1014 l 285 28 l 500 28 b 736 313 718 28 736 136 l 764 313 l 764 0 m 451 681 b 535 764 451 726 489 764 b 618 681 581 764 618 726 b 535 597 618 635 581 597 b 451 681 489 597 451 635 "},"ą":{"ha":738,"x_min":0,"x_max":0,"o":"m 453 363 l 453 424 b 331 617 453 517 442 617 b 204 581 269 617 224 597 b 265 511 229 574 265 556 b 183 432 265 456 218 432 b 111 508 142 432 111 458 b 358 650 111 594 232 650 b 578 424 567 650 578 536 l 578 85 b 629 36 578 57 596 36 b 710 99 654 36 683 51 l 731 88 b 617 -10 706 32 663 0 b 560 -150 581 -37 560 -96 b 626 -261 560 -201 579 -261 b 718 -193 676 -261 703 -222 l 740 -203 b 581 -304 719 -242 679 -304 b 431 -185 510 -304 431 -268 b 558 -12 431 -101 492 -46 b 453 101 503 -6 453 29 l 453 114 b 250 -14 422 31 356 -14 b 63 157 140 -14 63 54 b 367 363 63 274 169 363 m 313 36 b 453 251 392 36 453 111 l 453 335 l 367 335 b 204 178 261 335 204 264 b 313 36 204 99 236 36 "},"ļ":{"ha":444,"x_min":0,"x_max":0,"o":"m 160 28 l 160 1014 l 35 1014 l 35 1042 l 285 1042 l 285 28 l 410 28 l 410 0 l 35 0 l 35 28 m 142 -165 b 235 -83 142 -119 182 -83 b 332 -228 289 -83 332 -126 b 139 -450 332 -325 264 -450 l 139 -422 b 303 -217 225 -422 293 -346 b 215 -247 272 -247 239 -247 b 142 -165 169 -247 142 -211 "},"Ž":{"ha":778,"x_min":0,"x_max":0,"o":"m 579 1306 l 593 1292 l 440 1139 l 350 1139 l 197 1292 l 211 1306 l 394 1201 m 715 1042 l 715 1014 l 167 28 l 479 28 b 701 264 669 28 701 88 l 729 264 l 729 0 l 21 0 l 21 28 l 569 1014 l 299 1014 b 76 806 108 1014 76 954 l 49 806 l 49 1042 "},"ę":{"ha":713,"x_min":0,"x_max":0,"o":"m 579 -203 b 419 -304 558 -242 518 -304 b 269 -185 349 -304 269 -268 b 396 -14 269 -101 331 -47 b 379 -14 390 -14 385 -14 b 56 319 197 -14 56 111 b 375 653 56 528 193 653 b 663 349 582 653 663 500 l 201 349 b 201 319 201 339 201 329 b 396 14 201 161 244 14 b 636 199 518 14 601 97 l 664 199 b 465 -3 635 101 569 24 b 399 -150 424 -28 399 -92 b 465 -261 399 -201 418 -261 b 557 -193 515 -261 542 -222 l 579 -203 m 375 625 b 203 376 254 625 211 511 l 515 376 b 375 625 514 471 499 625 "},"ť":{"ha":563,"x_min":0,"x_max":0,"o":"m 333 1029 b 426 1111 333 1075 374 1111 b 524 967 481 1111 524 1068 b 331 744 524 869 456 744 l 331 772 b 494 978 417 772 485 849 b 407 947 464 947 431 947 b 333 1029 361 947 333 983 m 438 142 b 249 -10 404 53 333 -10 b 122 154 135 -10 122 78 l 122 611 l 21 611 l 21 639 l 122 639 l 122 778 b 247 819 164 778 219 799 l 247 639 l 396 639 l 396 611 l 247 611 l 247 128 b 300 40 247 58 263 40 b 413 151 339 40 388 90 l 438 142 "},"€":{"ha":986,"x_min":0,"x_max":0,"o":"m 182 417 b 174 521 176 450 174 485 b 178 597 174 547 175 572 l 42 597 l 42 625 l 182 625 b 638 1056 219 868 393 1056 b 910 856 807 1056 910 928 b 831 769 910 799 872 769 b 751 847 796 769 751 792 b 831 924 751 896 790 924 b 861 918 846 924 856 919 b 651 1026 833 960 768 1026 b 339 625 450 1026 360 832 l 653 625 l 653 597 l 336 597 b 333 521 335 572 333 546 b 339 417 333 485 335 450 l 653 417 l 653 389 l 342 389 b 618 18 371 179 469 18 b 876 247 750 18 842 132 l 907 247 b 601 -14 871 113 769 -14 b 186 389 422 -14 236 143 l 42 389 l 42 417 "},"ġ":{"ha":801,"x_min":0,"x_max":0,"o":"m 318 819 b 401 903 318 865 356 903 b 485 819 447 903 485 865 b 401 736 485 774 447 736 b 318 819 356 736 318 774 m 79 103 b 232 235 79 175 147 215 b 69 438 146 258 69 322 b 318 653 69 590 206 653 b 524 565 392 653 475 626 b 664 646 564 626 624 646 b 774 547 735 646 774 600 b 703 464 774 485 738 464 b 633 533 668 464 633 488 b 700 599 633 572 661 599 b 731 590 715 599 725 593 b 664 618 717 613 694 618 b 542 539 625 618 575 600 b 567 438 557 511 567 478 b 318 222 567 285 431 222 b 278 225 304 222 292 224 b 174 147 225 213 174 189 b 308 96 174 96 232 96 b 407 97 357 96 368 97 b 625 -114 511 97 625 75 b 333 -361 625 -282 486 -361 b 35 -174 176 -361 35 -306 b 194 -6 35 -64 128 -17 b 79 103 122 8 79 40 m 201 438 b 318 250 201 335 208 250 b 435 438 400 250 435 335 b 318 625 435 540 400 625 b 201 438 236 625 201 540 m 167 -142 b 342 -329 167 -236 208 -329 b 558 -135 479 -329 558 -262 b 417 -12 558 -60 507 -12 l 286 -12 b 225 -10 264 -12 244 -11 b 167 -142 172 -44 167 -100 "},"Ń":{"ha":1014,"x_min":0,"x_max":0,"o":"m 413 1139 l 406 1167 l 739 1247 b 801 1201 778 1257 801 1228 b 753 1153 801 1175 779 1154 m 174 28 l 174 1014 l 28 1014 l 28 1042 l 326 1042 l 817 218 l 817 1014 l 664 1014 l 664 1042 l 993 1042 l 993 1014 l 847 1014 l 847 -14 l 799 -14 l 204 979 l 204 28 l 364 28 l 364 0 l 28 0 l 28 28 "},"ć":{"ha":685,"x_min":0,"x_max":0,"o":"m 200 764 l 193 792 l 526 872 b 589 826 565 882 589 853 b 540 778 589 800 567 779 m 563 536 b 394 624 549 575 483 624 b 201 319 229 624 201 450 b 389 18 201 161 238 18 b 592 199 493 18 557 97 l 622 199 b 372 -14 586 78 513 -14 b 56 319 190 -14 56 111 b 381 653 56 500 171 653 b 611 474 522 653 611 574 b 532 388 611 417 574 388 b 453 465 497 388 453 410 b 532 542 453 514 492 542 b 563 536 547 542 557 538 "},"ﬃ":{"ha":1167,"x_min":0,"x_max":0,"o":"m 146 28 l 146 611 l 21 611 l 21 639 l 146 639 l 146 642 b 447 986 146 824 267 986 b 600 922 515 986 568 960 b 857 1056 651 1001 738 1056 b 1056 904 997 1056 1056 983 b 976 818 1056 847 1018 818 b 899 893 942 818 899 838 b 986 971 899 949 939 971 b 999 969 990 971 996 969 b 857 1028 999 986 957 1028 b 667 750 718 1028 667 926 l 667 639 l 1049 639 l 1049 28 l 1146 28 l 1146 0 l 21 0 l 21 28 m 542 711 b 543 749 542 724 542 736 b 475 824 511 753 475 774 b 563 901 475 879 515 901 b 575 900 567 901 572 900 b 447 958 575 917 519 958 b 271 681 350 958 271 857 l 271 639 l 542 639 l 542 711 m 542 28 l 542 611 l 271 611 l 271 28 m 667 611 l 667 28 l 924 28 l 924 611 "},"İ":{"ha":500,"x_min":0,"x_max":0,"o":"m 185 1222 b 268 1306 185 1268 222 1306 b 351 1222 314 1306 351 1268 b 268 1139 351 1176 314 1139 b 185 1222 222 1139 185 1176 m 181 28 l 181 1014 l 28 1014 l 28 1042 l 479 1042 l 479 1014 l 313 1014 l 313 28 l 479 28 l 479 0 l 28 0 l 28 28 "},"ž":{"ha":625,"x_min":0,"x_max":0,"o":"m 515 903 l 529 889 l 376 736 l 286 736 l 133 889 l 147 903 l 331 799 m 272 611 b 94 400 114 611 94 540 l 67 400 l 67 639 l 568 639 l 568 611 l 178 28 l 353 28 b 563 256 543 28 563 83 l 590 256 l 590 0 l 28 0 l 28 28 l 417 611 l 272 611 "},"ĉ":{"ha":685,"x_min":0,"x_max":0,"o":"m 211 736 l 197 750 l 350 903 l 440 903 l 593 750 l 579 736 l 394 840 m 563 536 b 394 624 549 575 483 624 b 201 319 229 624 201 450 b 389 18 201 161 238 18 b 592 199 493 18 557 97 l 622 199 b 372 -14 586 78 513 -14 b 56 319 190 -14 56 111 b 381 653 56 500 171 653 b 611 474 522 653 611 574 b 532 388 611 417 574 388 b 453 465 497 388 453 410 b 532 542 453 514 492 542 b 563 536 547 542 557 538 "},"ş":{"ha":597,"x_min":0,"x_max":0,"o":"m 63 -14 l 63 181 l 90 181 b 297 17 118 93 199 17 b 461 136 381 17 461 51 b 79 465 461 313 79 207 b 274 651 79 554 142 651 b 433 592 340 651 396 626 l 482 653 l 503 653 l 503 458 l 475 458 b 275 621 461 532 388 621 b 146 515 222 621 146 588 b 549 197 146 376 549 444 b 346 -12 549 85 463 1 l 279 -100 b 453 -212 379 -104 453 -135 b 218 -351 453 -282 386 -351 l 218 -324 b 354 -240 300 -324 354 -287 b 199 -156 354 -167 289 -156 l 306 -14 b 133 51 238 -12 176 13 l 83 -14 "},"—":{"ha":735,"x_min":0,"x_max":0,"o":"m 651 396 l 651 368 l 82 368 l 82 396 "},"ě":{"ha":713,"x_min":0,"x_max":0,"o":"m 574 903 l 588 889 l 435 736 l 344 736 l 192 889 l 206 903 l 389 799 m 664 199 b 379 -14 628 78 533 -14 b 56 319 197 -14 56 111 b 375 653 56 528 193 653 b 663 349 582 653 663 500 l 201 349 b 201 319 201 339 201 329 b 396 14 201 161 244 14 b 636 199 518 14 601 97 l 664 199 m 375 625 b 203 376 254 625 211 511 l 515 376 b 375 625 514 471 499 625 "},"ķ":{"ha":814,"x_min":0,"x_max":0,"o":"m 160 28 l 160 1014 l 35 1014 l 35 1042 l 285 1042 l 285 371 l 589 611 l 436 611 l 436 639 l 746 639 l 746 611 l 635 611 l 389 413 l 717 28 l 793 28 l 793 0 l 464 0 l 464 28 l 560 28 l 285 350 l 285 28 l 382 28 l 382 0 l 35 0 l 35 28 m 333 -165 b 426 -83 333 -119 374 -83 b 524 -228 481 -83 524 -126 b 331 -450 524 -325 456 -450 l 331 -422 b 494 -217 417 -422 485 -346 b 407 -247 464 -247 431 -247 b 333 -165 361 -247 333 -211 "},"ś":{"ha":597,"x_min":0,"x_max":0,"o":"m 131 778 l 124 806 l 457 886 b 519 840 496 896 519 867 b 471 792 519 814 497 793 m 63 -14 l 63 181 l 90 181 b 297 17 118 93 199 17 b 461 136 381 17 461 51 b 79 465 461 313 79 207 b 274 651 79 554 142 651 b 433 592 340 651 396 626 l 482 653 l 503 653 l 503 458 l 475 458 b 275 621 461 532 388 621 b 146 515 222 621 146 588 b 549 197 146 376 549 444 b 311 -14 549 74 446 -14 b 133 51 240 -14 178 11 l 83 -14 "},"ĥ":{"ha":813,"x_min":0,"x_max":0,"o":"m 28 1125 l 14 1139 l 167 1292 l 257 1292 l 410 1139 l 396 1125 l 211 1229 m 132 28 l 132 1014 l 35 1014 l 35 1042 l 257 1042 l 257 476 b 483 653 285 572 349 653 b 681 443 646 653 681 564 l 681 28 l 778 28 l 778 0 l 458 0 l 458 28 l 556 28 l 556 428 b 443 611 556 544 521 611 b 257 310 307 611 257 453 l 257 28 l 354 28 l 354 0 l 35 0 l 35 28 "},"Ŝ":{"ha":778,"x_min":0,"x_max":0,"o":"m 219 1139 l 206 1153 l 358 1306 l 449 1306 l 601 1153 l 588 1139 l 403 1243 m 63 -14 l 63 271 l 90 271 b 389 10 118 133 210 10 b 625 229 536 10 625 92 b 76 799 625 514 76 438 b 364 1056 76 951 210 1056 b 588 965 457 1056 535 1026 l 646 1056 l 667 1056 l 667 771 l 639 771 b 378 1024 611 936 508 1024 b 174 840 244 1024 174 950 b 722 278 174 583 722 653 b 403 -21 722 97 599 -21 b 140 88 278 -21 196 21 l 83 -14 "},"Ţ":{"ha":875,"x_min":0,"x_max":0,"o":"m 375 28 l 375 1014 l 236 1014 b 56 729 74 1014 56 906 l 28 729 l 28 1042 l 854 1042 l 854 729 l 826 729 b 646 1014 826 906 808 1014 l 507 1014 l 507 28 l 660 28 l 660 0 l 485 0 l 419 -86 b 593 -199 519 -90 593 -121 b 358 -337 593 -268 526 -337 l 358 -310 b 494 -226 440 -310 494 -274 b 339 -142 494 -153 429 -142 l 446 0 l 222 0 l 222 28 "},"Ņ":{"ha":1014,"x_min":0,"x_max":0,"o":"m 174 28 l 174 1014 l 28 1014 l 28 1042 l 326 1042 l 817 218 l 817 1014 l 664 1014 l 664 1042 l 993 1042 l 993 1014 l 847 1014 l 847 -14 l 799 -14 l 204 979 l 204 28 l 364 28 l 364 0 l 28 0 l 28 28 m 438 -179 b 531 -97 438 -133 478 -97 b 628 -242 585 -97 628 -140 b 435 -464 628 -339 560 -464 l 435 -436 b 599 -231 521 -436 589 -360 b 511 -261 568 -261 535 -261 b 438 -179 465 -261 438 -225 "},"ŉ":{"ha":910,"x_min":0,"x_max":0,"o":"m 14 929 b 107 1011 14 975 54 1011 b 204 867 161 1011 204 968 b 11 644 204 769 136 644 l 11 672 b 175 878 97 672 165 749 b 88 847 144 847 111 847 b 14 929 42 847 14 883 m 257 28 l 257 611 l 160 611 l 160 639 l 382 639 l 382 465 b 608 653 411 565 478 653 b 806 443 757 653 806 564 l 806 28 l 903 28 l 903 0 l 583 0 l 583 28 l 681 28 l 681 428 b 568 611 681 544 646 611 b 382 310 449 611 382 453 l 382 28 l 479 28 l 479 0 l 160 0 l 160 28 "},"Ā":{"ha":1021,"x_min":0,"x_max":0,"o":"m 725 1174 l 725 1146 l 333 1146 l 333 1174 m 140 28 l 507 1063 l 535 1063 l 893 28 l 1000 28 l 1000 0 l 597 0 l 597 28 l 742 28 l 644 326 l 279 326 l 175 28 l 333 28 l 333 0 l 28 0 l 28 28 m 289 354 l 636 354 l 468 872 "},"Ȓ":{"ha":965,"x_min":0,"x_max":0,"o":"m 340 1139 b 493 1318 340 1224 368 1318 b 646 1139 618 1318 646 1224 l 618 1139 b 493 1242 618 1207 568 1242 b 368 1139 418 1242 368 1207 m 181 28 l 181 1014 l 28 1014 l 28 1042 l 486 1042 b 833 785 696 1042 833 965 b 553 533 833 624 735 547 b 875 26 965 501 710 26 b 943 40 904 26 924 32 l 951 14 b 826 -7 929 1 876 -7 b 479 521 503 -7 821 521 l 313 521 l 313 28 l 465 28 l 465 0 l 28 0 l 28 28 m 313 1014 l 313 549 l 486 549 b 694 785 619 549 694 633 b 486 1014 694 936 619 1014 "},"Ċ":{"ha":931,"x_min":0,"x_max":0,"o":"m 465 1222 b 549 1306 465 1268 503 1306 b 632 1222 594 1306 632 1268 b 549 1139 632 1176 594 1139 b 465 1222 503 1139 465 1176 m 875 0 l 854 0 l 793 85 b 535 -14 733 24 642 -14 b 63 521 253 -14 63 211 b 535 1056 63 831 253 1056 b 774 961 628 1056 714 1021 l 840 1042 l 861 1042 l 861 757 l 833 757 b 549 1021 819 913 693 1021 b 222 521 307 1021 222 774 b 549 21 222 268 307 21 b 847 285 721 21 833 143 l 875 285 "},"Ł":{"ha":792,"x_min":0,"x_max":0,"o":"m 153 585 l 153 1014 l 28 1014 l 28 1042 l 410 1042 l 410 1014 l 285 1014 l 285 668 l 500 806 l 500 771 l 285 633 l 285 28 l 500 28 b 736 313 718 28 736 136 l 764 313 l 764 0 l 28 0 l 28 28 l 153 28 l 153 550 l 21 465 l 21 500 "},"˜":{"ha":622,"x_min":0,"x_max":0,"o":"m 185 929 b 97 833 139 929 97 906 l 69 833 b 207 1010 69 951 139 1010 b 438 900 304 1010 374 900 b 525 996 483 900 525 924 l 553 996 b 429 819 553 864 511 819 b 185 929 336 819 258 929 "},"ţ":{"ha":451,"x_min":0,"x_max":0,"o":"m 288 -222 b 132 -137 288 -149 222 -137 l 229 -8 b 122 154 133 1 122 82 l 122 611 l 21 611 l 21 639 l 122 639 l 122 778 b 247 819 164 778 219 799 l 247 639 l 396 639 l 396 611 l 247 611 l 247 128 b 300 40 247 58 263 40 b 413 151 339 40 388 90 l 438 142 b 268 -8 407 60 344 0 l 213 -82 b 386 -194 313 -86 386 -117 b 151 -333 386 -264 319 -333 l 151 -306 b 288 -222 233 -306 288 -269 "},"ĵ":{"ha":371,"x_min":0,"x_max":0,"o":"m 3 736 l -11 750 l 142 903 l 232 903 l 385 750 l 371 736 l 186 840 m 271 -17 b 53 -361 271 -199 233 -361 b -118 -210 -60 -361 -118 -289 b -39 -124 -118 -153 -81 -124 b 39 -199 -4 -124 39 -143 b -49 -276 39 -254 -1 -276 b -61 -275 -54 -276 -61 -275 b 46 -332 -61 -292 -15 -332 b 146 28 171 -332 146 -149 l 146 611 l 21 611 l 21 639 l 271 639 "},"Į":{"ha":500,"x_min":0,"x_max":0,"o":"m 181 28 l 181 1014 l 28 1014 l 28 1042 l 479 1042 l 479 1014 l 313 1014 l 313 28 l 479 28 l 479 0 l 274 0 l 274 -1 b 204 -150 231 -25 204 -90 b 271 -261 204 -201 224 -261 b 363 -193 321 -261 347 -222 l 385 -203 b 225 -304 364 -242 324 -304 b 75 -185 154 -304 75 -268 b 231 0 75 -89 154 -32 l 28 0 l 28 28 "},"Ć":{"ha":931,"x_min":0,"x_max":0,"o":"m 368 1153 l 361 1181 l 694 1261 b 757 1215 733 1271 757 1242 b 708 1167 757 1189 735 1168 m 875 0 l 854 0 l 793 85 b 535 -14 733 24 642 -14 b 63 521 253 -14 63 211 b 535 1056 63 831 253 1056 b 774 961 628 1056 714 1021 l 840 1042 l 861 1042 l 861 757 l 833 757 b 549 1021 819 913 693 1021 b 222 521 307 1021 222 774 b 549 21 222 268 307 21 b 847 285 721 21 833 143 l 875 285 "},"Ş":{"ha":778,"x_min":0,"x_max":0,"o":"m 63 -14 l 63 271 l 90 271 b 389 10 118 133 210 10 b 625 229 536 10 625 92 b 76 799 625 514 76 438 b 364 1056 76 951 210 1056 b 588 965 457 1056 535 1026 l 646 1056 l 667 1056 l 667 771 l 639 771 b 378 1024 611 936 508 1024 b 174 840 244 1024 174 950 b 722 278 174 583 722 653 b 435 -19 722 107 611 -8 l 358 -121 b 532 -233 458 -125 532 -156 b 297 -372 532 -303 465 -372 l 297 -344 b 433 -261 379 -344 433 -308 b 278 -176 433 -187 368 -176 l 394 -21 b 140 88 275 -19 194 22 l 83 -14 "},"Ť":{"ha":875,"x_min":0,"x_max":0,"o":"m 639 1306 l 653 1292 l 500 1139 l 410 1139 l 257 1292 l 271 1306 l 454 1201 m 375 28 l 375 1014 l 236 1014 b 56 729 74 1014 56 906 l 28 729 l 28 1042 l 854 1042 l 854 729 l 826 729 b 646 1014 826 906 808 1014 l 507 1014 l 507 28 l 660 28 l 660 0 l 222 0 l 222 28 "},"Ū":{"ha":965,"x_min":0,"x_max":0,"o":"m 690 1167 l 690 1139 l 299 1139 l 299 1167 m 424 1042 l 424 1014 l 285 1014 l 285 333 b 528 14 285 150 328 14 b 792 319 686 14 792 108 l 792 1014 l 674 1014 l 674 1042 l 944 1042 l 944 1014 l 819 1014 l 819 319 b 500 -21 819 90 719 -21 b 153 319 260 -21 153 79 l 153 1014 l 28 1014 l 28 1042 "},"Đ":{"ha":972,"x_min":0,"x_max":0,"o":"m 28 0 l 28 28 l 153 28 l 153 493 l 35 493 l 35 521 l 153 521 l 153 1014 l 28 1014 l 28 1042 l 417 1042 b 917 521 726 1042 917 817 b 417 0 917 225 713 0 m 285 493 l 285 28 l 417 28 b 757 521 672 28 757 268 b 417 1014 757 774 658 1014 l 285 1014 l 285 521 l 440 521 l 440 493 "},"Š":{"ha":778,"x_min":0,"x_max":0,"o":"m 582 1306 l 596 1292 l 443 1139 l 353 1139 l 200 1292 l 214 1306 l 397 1201 m 63 -14 l 63 271 l 90 271 b 389 10 118 133 210 10 b 625 229 536 10 625 92 b 76 799 625 514 76 438 b 364 1056 76 951 210 1056 b 588 965 457 1056 535 1026 l 646 1056 l 667 1056 l 667 771 l 639 771 b 378 1024 611 936 508 1024 b 174 840 244 1024 174 950 b 722 278 174 583 722 653 b 403 -21 722 97 599 -21 b 140 88 278 -21 196 21 l 83 -14 "},"Ŕ":{"ha":965,"x_min":0,"x_max":0,"o":"m 299 1167 l 292 1194 l 625 1275 b 688 1229 664 1285 688 1256 b 639 1181 688 1203 665 1182 m 181 28 l 181 1014 l 28 1014 l 28 1042 l 486 1042 b 833 785 696 1042 833 965 b 553 533 833 624 735 547 b 875 26 965 501 710 26 b 943 40 904 26 924 32 l 951 14 b 826 -7 929 1 876 -7 b 479 521 503 -7 821 521 l 313 521 l 313 28 l 465 28 l 465 0 l 28 0 l 28 28 m 313 1014 l 313 549 l 486 549 b 694 785 619 549 694 633 b 486 1014 694 936 619 1014 "},"Ō":{"ha":1007,"x_min":0,"x_max":0,"o":"m 711 1167 l 711 1139 l 319 1139 l 319 1167 m 507 -14 b 63 521 225 -14 63 225 b 507 1056 63 817 239 1056 b 951 521 775 1056 951 817 b 507 -14 951 225 789 -14 m 507 1032 b 222 521 279 1032 222 774 b 507 10 222 268 265 10 b 792 521 749 10 792 268 b 507 1032 792 774 735 1032 "},"ł":{"ha":444,"x_min":0,"x_max":0,"o":"m 160 28 l 160 606 l 21 518 l 21 556 l 160 643 l 160 1014 l 35 1014 l 35 1042 l 285 1042 l 285 722 l 417 806 l 417 768 l 285 685 l 285 28 l 410 28 l 410 0 l 35 0 l 35 28 "},"Ĕ":{"ha":813,"x_min":0,"x_max":0,"o":"m 282 1318 b 407 1215 282 1250 332 1215 b 532 1318 482 1215 532 1250 l 560 1318 b 407 1139 560 1233 532 1139 b 254 1318 282 1139 254 1233 l 282 1318 m 493 386 b 368 525 493 479 447 525 l 285 525 l 285 28 l 507 28 b 743 313 697 28 743 136 l 771 313 l 771 0 l 28 0 l 28 28 l 153 28 l 153 1014 l 28 1014 l 28 1042 l 757 1042 l 757 757 l 729 757 b 521 1014 729 906 683 1014 l 285 1014 l 285 553 l 368 553 b 493 685 447 553 493 592 l 521 685 l 521 386 l 493 386 "},"Ș":{"ha":778,"x_min":0,"x_max":0,"o":"m 63 -14 l 63 271 l 90 271 b 389 10 118 133 210 10 b 625 229 536 10 625 92 b 76 799 625 514 76 438 b 364 1056 76 951 210 1056 b 588 965 457 1056 535 1026 l 646 1056 l 667 1056 l 667 771 l 639 771 b 378 1024 611 936 508 1024 b 174 840 244 1024 174 950 b 722 278 174 583 722 653 b 403 -21 722 97 599 -21 b 140 88 278 -21 196 21 l 83 -14 m 324 -186 b 417 -104 324 -140 364 -104 b 514 -249 471 -104 514 -147 b 321 -471 514 -346 446 -471 l 321 -443 b 485 -237 407 -443 475 -367 b 397 -268 454 -268 421 -268 b 324 -186 351 -268 324 -232 "},"ů":{"ha":813,"x_min":0,"x_max":0,"o":"m 247 861 b 372 986 247 932 301 986 b 497 861 443 986 497 932 b 372 736 497 790 443 736 b 247 861 301 736 247 790 m 296 861 b 372 764 296 803 321 764 b 449 861 424 764 449 803 b 372 958 449 919 424 958 b 296 861 321 958 296 919 m 778 28 l 778 0 l 556 0 l 556 174 b 329 -14 526 74 460 -14 b 132 196 181 -14 132 75 l 132 611 l 35 611 l 35 639 l 257 639 l 257 211 b 369 28 257 94 292 28 b 556 329 489 28 556 186 l 556 611 l 458 611 l 458 639 l 681 639 l 681 28 "},"ŗ":{"ha":578,"x_min":0,"x_max":0,"o":"m 132 28 l 132 611 l 35 611 l 35 639 l 257 639 l 257 493 b 431 653 282 585 335 653 b 558 540 494 653 558 608 b 478 456 558 493 531 456 b 396 532 432 456 396 481 b 483 611 396 586 447 611 b 431 625 469 622 451 625 b 257 310 299 625 257 446 l 257 28 l 354 28 l 354 0 l 35 0 l 35 28 m 114 -165 b 207 -83 114 -119 154 -83 b 304 -228 261 -83 304 -126 b 111 -450 304 -325 236 -450 l 111 -422 b 275 -217 197 -422 265 -346 b 188 -247 244 -247 211 -247 b 114 -165 142 -247 114 -211 "},"Œ":{"ha":1319,"x_min":0,"x_max":0,"o":"m 1000 386 b 875 525 1000 479 954 525 l 792 525 l 792 28 l 1014 28 b 1250 313 1204 28 1250 136 l 1278 313 l 1278 0 l 535 0 l 535 14 l 528 0 b 56 521 246 0 56 211 b 528 1042 56 831 246 1042 l 535 1028 l 535 1042 l 1264 1042 l 1264 757 l 1236 757 b 1028 1014 1236 906 1190 1014 l 792 1014 l 792 553 l 875 553 b 1000 685 954 553 1000 592 l 1028 685 l 1028 386 l 1000 386 m 215 521 b 542 28 215 268 286 28 l 660 28 l 660 1014 l 542 1014 b 215 521 286 1014 215 774 "},"Ÿ":{"ha":986,"x_min":0,"x_max":0,"o":"m 565 1222 b 649 1306 565 1268 603 1306 b 732 1222 694 1306 732 1268 b 649 1139 732 1176 694 1139 b 565 1222 603 1139 565 1176 m 288 1222 b 371 1306 288 1268 325 1306 b 454 1222 417 1306 454 1268 b 371 1139 454 1176 417 1139 b 288 1222 325 1139 288 1176 m 444 28 l 444 500 l 122 1014 l 21 1014 l 21 1042 l 424 1042 l 424 1014 l 274 1014 l 558 558 l 833 1014 l 681 1014 l 681 1042 l 972 1042 l 972 1014 l 868 1014 l 576 532 l 576 28 l 715 28 l 715 0 l 319 0 l 319 28 "},"Ř":{"ha":965,"x_min":0,"x_max":0,"o":"m 663 1306 l 676 1292 l 524 1139 l 433 1139 l 281 1292 l 294 1306 l 478 1201 m 181 28 l 181 1014 l 28 1014 l 28 1042 l 486 1042 b 833 785 696 1042 833 965 b 553 533 833 624 735 547 b 875 26 965 501 710 26 b 943 40 904 26 924 32 l 951 14 b 826 -7 929 1 876 -7 b 479 521 503 -7 821 521 l 313 521 l 313 28 l 465 28 l 465 0 l 28 0 l 28 28 m 313 1014 l 313 549 l 486 549 b 694 785 619 549 694 633 b 486 1014 694 936 619 1014 "},"­":{"ha":500,"x_min":0,"x_max":0,"o":"m 417 396 l 417 368 l 83 368 l 83 396 "},"ū":{"ha":813,"x_min":0,"x_max":0,"o":"m 563 764 l 563 736 l 171 736 l 171 764 m 778 28 l 778 0 l 556 0 l 556 174 b 329 -14 526 74 460 -14 b 132 196 181 -14 132 75 l 132 611 l 35 611 l 35 639 l 257 639 l 257 211 b 369 28 257 94 292 28 b 556 329 489 28 556 186 l 556 611 l 458 611 l 458 639 l 681 639 l 681 28 "},"ﬂ":{"ha":785,"x_min":0,"x_max":0,"o":"m 146 28 l 146 611 l 21 611 l 21 639 l 146 639 l 146 711 b 433 1056 146 893 253 1056 b 556 1014 486 1056 528 1039 l 681 1069 l 681 28 l 778 28 l 778 0 l 21 0 l 21 28 m 547 969 b 433 1028 547 986 506 1028 b 271 750 322 1028 271 926 l 271 639 l 458 639 l 458 611 l 271 611 l 271 28 l 556 28 l 556 824 b 525 818 546 819 536 818 b 447 893 490 818 447 838 b 535 971 447 949 488 971 b 547 969 539 971 544 969 "},"‾":{"ha":500,"x_min":0,"x_max":0,"o":"m 507 1111 l 507 1083 l -7 1083 l -7 1111 "},"ň":{"ha":813,"x_min":0,"x_max":0,"o":"m 646 931 l 660 917 l 507 764 l 417 764 l 264 917 l 278 931 l 461 826 m 132 28 l 132 611 l 35 611 l 35 639 l 257 639 l 257 465 b 483 653 286 565 353 653 b 681 443 632 653 681 564 l 681 28 l 778 28 l 778 0 l 458 0 l 458 28 l 556 28 l 556 428 b 443 611 556 544 521 611 b 257 310 324 611 257 453 l 257 28 l 354 28 l 354 0 l 35 0 l 35 28 "},"π":{"ha":807,"x_min":0,"x_max":0,"o":"m 144 -14 b 63 53 88 -14 63 18 b 218 388 63 147 218 114 l 218 514 l 85 514 l 85 410 l 57 410 l 57 639 l 731 639 l 731 514 l 606 514 l 606 140 b 657 90 606 113 624 90 b 738 154 682 90 711 107 l 758 143 b 608 -14 726 46 668 -14 b 481 101 543 -14 481 19 l 481 514 l 296 514 l 296 338 b 144 -14 296 118 239 -14 "},"ŝ":{"ha":597,"x_min":0,"x_max":0,"o":"m 149 736 l 135 750 l 288 903 l 378 903 l 531 750 l 517 736 l 332 840 m 63 -14 l 63 181 l 90 181 b 297 17 118 93 199 17 b 461 136 381 17 461 51 b 79 465 461 313 79 207 b 274 651 79 554 142 651 b 433 592 340 651 396 626 l 482 653 l 503 653 l 503 458 l 475 458 b 275 621 461 532 388 621 b 146 515 222 621 146 588 b 549 197 146 376 549 444 b 311 -14 549 74 446 -14 b 133 51 240 -14 178 11 l 83 -14 "},"ė":{"ha":713,"x_min":0,"x_max":0,"o":"m 306 819 b 389 903 306 865 343 903 b 472 819 435 903 472 865 b 389 736 472 774 435 736 b 306 819 343 736 306 774 m 664 199 b 379 -14 628 78 533 -14 b 56 319 197 -14 56 111 b 375 653 56 528 193 653 b 663 349 582 653 663 500 l 201 349 b 201 319 201 339 201 329 b 396 14 201 161 244 14 b 636 199 518 14 601 97 l 664 199 m 375 625 b 203 376 254 625 211 511 l 515 376 b 375 625 514 471 499 625 "},"":{"ha":857,"x_min":0,"x_max":0,"o":"m 447 686 l 447 1042 l 410 1042 l 410 1051 l 497 1051 l 611 742 l 717 1051 l 806 1051 l 806 1042 l 769 1042 l 769 686 l 806 686 l 806 676 l 682 676 l 682 686 l 722 686 l 722 1036 l 599 671 l 588 671 l 458 1025 l 458 686 l 493 686 l 493 676 l 413 676 l 413 686 m 183 686 l 183 1042 l 133 1042 b 68 939 75 1042 68 1003 l 58 939 l 58 1051 l 356 1051 l 356 939 l 346 939 b 281 1042 346 1003 340 1042 l 231 1042 l 231 686 l 286 686 l 286 676 l 129 676 l 129 686 "},"´":{"ha":549,"x_min":0,"x_max":0,"o":"m 83 986 l 76 1014 l 410 1094 b 472 1049 449 1104 472 1075 b 424 1000 472 1022 450 1001 "},"Ķ":{"ha":944,"x_min":0,"x_max":0,"o":"m 153 28 l 153 1014 l 28 1014 l 28 1042 l 424 1042 l 424 1014 l 285 1014 l 285 467 l 692 1014 l 542 1014 l 542 1042 l 875 1042 l 875 1014 l 733 1014 l 453 636 l 813 28 l 938 28 l 938 0 l 507 0 l 507 28 l 647 28 l 369 524 l 285 410 l 285 28 l 424 28 l 424 0 l 28 0 l 28 28 m 403 -165 b 496 -83 403 -119 443 -83 b 593 -228 550 -83 593 -126 b 400 -450 593 -325 525 -450 l 400 -422 b 564 -217 486 -422 554 -346 b 476 -247 533 -247 500 -247 b 403 -165 431 -247 403 -211 "},"ˆ":{"ha":535,"x_min":0,"x_max":0,"o":"m 83 903 l 69 917 l 222 1069 l 313 1069 l 465 917 l 451 903 l 267 1007 "},"Ŭ":{"ha":965,"x_min":0,"x_max":0,"o":"m 361 1346 b 486 1243 361 1278 411 1243 b 611 1346 561 1243 611 1278 l 639 1346 b 486 1167 639 1261 611 1167 b 333 1346 361 1167 333 1261 l 361 1346 m 424 1042 l 424 1014 l 285 1014 l 285 333 b 528 14 285 150 328 14 b 792 319 686 14 792 108 l 792 1014 l 674 1014 l 674 1042 l 944 1042 l 944 1014 l 819 1014 l 819 319 b 500 -21 819 90 719 -21 b 153 319 260 -21 153 79 l 153 1014 l 28 1014 l 28 1042 "},"ẞ":{"ha":1113,"x_min":0,"x_max":0,"o":"m 146 28 l 146 613 b 643 1056 146 894 361 1056 b 1015 918 856 1056 974 964 l 735 568 b 1057 264 1008 533 1057 396 b 710 -14 1057 83 906 -14 b 424 189 513 -14 424 89 b 507 279 424 246 458 279 b 582 201 549 279 582 251 b 503 125 582 157 543 125 b 472 131 488 125 478 129 b 682 17 479 92 550 17 b 910 264 847 17 910 133 b 588 550 910 367 892 550 l 588 576 l 901 965 b 643 1028 839 1003 746 1028 b 285 599 401 1028 285 838 l 285 28 l 410 28 l 410 0 l 21 0 l 21 28 "},"Ē":{"ha":813,"x_min":0,"x_max":0,"o":"m 597 1167 l 597 1139 l 206 1139 l 206 1167 m 493 386 b 368 525 493 479 447 525 l 285 525 l 285 28 l 507 28 b 743 313 697 28 743 136 l 771 313 l 771 0 l 28 0 l 28 28 l 153 28 l 153 1014 l 28 1014 l 28 1042 l 757 1042 l 757 757 l 729 757 b 521 1014 729 906 683 1014 l 285 1014 l 285 553 l 368 553 b 493 685 447 553 493 592 l 521 685 l 521 386 l 493 386 "},"ũ":{"ha":813,"x_min":0,"x_max":0,"o":"m 246 846 b 158 750 200 846 158 822 l 131 750 b 268 926 131 868 200 926 b 499 817 365 926 435 817 b 586 913 544 817 586 840 l 614 913 b 490 736 614 781 572 736 b 246 846 397 736 319 846 m 778 28 l 778 0 l 556 0 l 556 174 b 329 -14 526 74 460 -14 b 132 196 181 -14 132 75 l 132 611 l 35 611 l 35 639 l 257 639 l 257 211 b 369 28 257 94 292 28 b 556 329 489 28 556 186 l 556 611 l 458 611 l 458 639 l 681 639 l 681 28 "},"Ũ":{"ha":965,"x_min":0,"x_max":0,"o":"m 374 1249 b 286 1153 328 1249 286 1225 l 258 1153 b 396 1329 258 1271 328 1329 b 626 1219 493 1329 563 1219 b 714 1315 672 1219 714 1243 l 742 1315 b 618 1139 742 1183 700 1139 b 374 1249 525 1139 447 1249 m 424 1042 l 424 1014 l 285 1014 l 285 333 b 528 14 285 150 328 14 b 792 319 686 14 792 108 l 792 1014 l 674 1014 l 674 1042 l 944 1042 l 944 1014 l 819 1014 l 819 319 b 500 -21 819 90 719 -21 b 153 319 260 -21 153 79 l 153 1014 l 28 1014 l 28 1042 "},"Ů":{"ha":965,"x_min":0,"x_max":0,"o":"m 375 1264 b 500 1389 375 1335 429 1389 b 625 1264 571 1389 625 1335 b 500 1139 625 1193 571 1139 b 375 1264 429 1139 375 1193 m 424 1264 b 500 1167 424 1206 449 1167 b 576 1264 551 1167 576 1206 b 500 1361 576 1322 551 1361 b 424 1264 449 1361 424 1322 m 424 1042 l 424 1014 l 285 1014 l 285 333 b 528 14 285 150 328 14 b 792 319 686 14 792 108 l 792 1014 l 674 1014 l 674 1042 l 944 1042 l 944 1014 l 819 1014 l 819 319 b 500 -21 819 90 719 -21 b 153 319 260 -21 153 79 l 153 1014 l 28 1014 l 28 1042 "},"‑":{"ha":399,"x_min":0,"x_max":0,"o":"m 315 396 l 315 368 l 83 368 l 83 396 "},"ˇ":{"ha":535,"x_min":0,"x_max":0,"o":"m 451 1097 l 465 1083 l 313 931 l 222 931 l 69 1083 l 83 1097 l 267 993 "},"Ĥ":{"ha":1021,"x_min":0,"x_max":0,"o":"m 344 1139 l 331 1153 l 483 1306 l 574 1306 l 726 1153 l 713 1139 l 528 1243 m 153 28 l 153 1014 l 28 1014 l 28 1042 l 424 1042 l 424 1014 l 285 1014 l 285 528 l 743 528 l 743 1014 l 604 1014 l 604 1042 l 1000 1042 l 1000 1014 l 875 1014 l 875 28 l 1000 28 l 1000 0 l 604 0 l 604 28 l 743 28 l 743 500 l 285 500 l 285 28 l 424 28 l 424 0 l 28 0 l 28 28 "},"Ě":{"ha":813,"x_min":0,"x_max":0,"o":"m 590 1306 l 604 1292 l 451 1139 l 361 1139 l 208 1292 l 222 1306 l 406 1201 m 493 386 b 368 525 493 479 447 525 l 285 525 l 285 28 l 507 28 b 743 313 697 28 743 136 l 771 313 l 771 0 l 28 0 l 28 28 l 153 28 l 153 1014 l 28 1014 l 28 1042 l 757 1042 l 757 757 l 729 757 b 521 1014 729 906 683 1014 l 285 1014 l 285 553 l 368 553 b 493 685 447 553 493 592 l 521 685 l 521 386 l 493 386 "},"Ĩ":{"ha":500,"x_min":0,"x_max":0,"o":"m 142 1249 b 54 1153 96 1249 54 1225 l 26 1153 b 164 1329 26 1271 96 1329 b 394 1219 261 1329 331 1219 b 482 1315 440 1219 482 1243 l 510 1315 b 386 1139 510 1183 468 1139 b 142 1249 293 1139 215 1249 m 181 28 l 181 1014 l 28 1014 l 28 1042 l 479 1042 l 479 1014 l 313 1014 l 313 28 l 479 28 l 479 0 l 28 0 l 28 28 "},"ō":{"ha":747,"x_min":0,"x_max":0,"o":"m 578 764 l 578 736 l 186 736 l 186 764 m 56 319 b 374 653 56 500 178 653 b 692 319 569 653 692 500 b 374 -14 692 139 569 -14 b 56 319 178 -14 56 139 m 201 319 b 374 14 201 189 222 14 b 546 319 525 14 546 189 b 374 625 546 450 525 625 b 201 319 222 625 201 450 "},"˚":{"ha":444,"x_min":0,"x_max":0,"o":"m 97 944 b 222 1069 97 1015 151 1069 b 347 944 293 1069 347 1015 b 222 819 347 874 293 819 b 97 944 151 819 97 874 m 146 944 b 222 847 146 886 171 847 b 299 944 274 847 299 886 b 222 1042 299 1003 274 1042 b 146 944 171 1042 146 1003 "},"‐":{"ha":500,"x_min":0,"x_max":0,"o":"m 417 396 l 417 368 l 83 368 l 83 396 "},"Ŏ":{"ha":1007,"x_min":0,"x_max":0,"o":"m 396 1318 b 521 1215 396 1250 446 1215 b 646 1318 596 1215 646 1250 l 674 1318 b 521 1139 674 1233 646 1139 b 368 1318 396 1139 368 1233 l 396 1318 m 507 -14 b 63 521 225 -14 63 225 b 507 1056 63 817 239 1056 b 951 521 775 1056 951 817 b 507 -14 951 225 789 -14 m 507 1032 b 222 521 279 1032 222 774 b 507 10 222 268 265 10 b 792 521 749 10 792 268 b 507 1032 792 774 735 1032 "},"Ī":{"ha":500,"x_min":0,"x_max":0,"o":"m 464 1167 l 464 1139 l 72 1139 l 72 1167 m 181 28 l 181 1014 l 28 1014 l 28 1042 l 479 1042 l 479 1014 l 313 1014 l 313 28 l 479 28 l 479 0 l 28 0 l 28 28 "},"į":{"ha":403,"x_min":0,"x_max":0,"o":"m 104 972 b 188 1056 104 1018 142 1056 b 271 972 233 1056 271 1018 b 188 889 271 926 233 889 b 104 972 142 889 104 926 m 139 28 l 139 611 l 42 611 l 42 639 l 264 639 l 264 28 l 361 28 l 361 0 l 221 0 l 221 -1 b 151 -150 178 -25 151 -90 b 218 -261 151 -201 171 -261 b 310 -193 268 -261 294 -222 l 332 -203 b 172 -304 311 -242 271 -304 b 22 -185 101 -304 22 -268 b 178 0 22 -89 101 -32 l 42 0 l 42 28 "},"Ġ":{"ha":993,"x_min":0,"x_max":0,"o":"m 465 1222 b 549 1306 465 1268 503 1306 b 632 1222 594 1306 632 1268 b 549 1139 632 1176 594 1139 b 465 1222 503 1139 465 1176 m 979 410 l 979 382 l 896 382 l 896 229 b 514 -14 854 142 740 -14 b 63 521 225 -14 63 211 b 535 1056 63 831 253 1056 b 774 961 628 1056 714 1021 l 840 1042 l 861 1042 l 861 757 l 833 757 b 549 1021 819 913 693 1021 b 222 521 307 1021 222 774 b 514 14 222 268 279 14 b 750 174 686 14 736 143 l 750 382 l 604 382 l 604 410 "},"ﬁ":{"ha":771,"x_min":0,"x_max":0,"o":"m 146 28 l 146 611 l 21 611 l 21 639 l 146 639 l 146 711 b 461 1056 146 893 253 1056 b 660 904 601 1056 660 983 b 581 818 660 847 622 818 b 503 893 546 818 503 838 b 590 971 503 949 543 971 b 603 969 594 971 600 969 b 461 1028 603 986 561 1028 b 271 750 322 1028 271 926 l 271 639 l 653 639 l 653 28 l 750 28 l 750 0 l 21 0 l 21 28 m 271 611 l 271 28 l 528 28 l 528 611 "},"Ź":{"ha":778,"x_min":0,"x_max":0,"o":"m 285 1139 l 278 1167 l 611 1247 b 674 1201 650 1257 674 1228 b 625 1153 674 1175 651 1154 m 715 1042 l 715 1014 l 167 28 l 479 28 b 701 264 669 28 701 88 l 729 264 l 729 0 l 21 0 l 21 28 l 569 1014 l 299 1014 b 76 806 108 1014 76 954 l 49 806 l 49 1042 "},"œ":{"ha":1185,"x_min":0,"x_max":0,"o":"m 56 319 b 374 653 56 500 178 653 b 622 535 481 653 567 607 b 875 653 679 611 769 653 b 1163 349 1082 653 1163 500 l 701 349 b 701 319 701 339 701 329 b 896 14 701 161 744 14 b 1136 199 1018 14 1101 97 l 1164 199 b 879 -14 1128 78 1033 -14 b 622 104 774 -14 681 28 b 374 -14 568 33 482 -14 b 56 319 178 -14 56 139 m 201 319 b 374 14 201 189 222 14 b 546 319 525 14 546 189 b 374 625 546 450 525 625 b 201 319 222 625 201 450 m 875 625 b 703 376 754 625 711 511 l 1015 376 b 875 625 1014 471 999 625 "},"Ľ":{"ha":792,"x_min":0,"x_max":0,"o":"m 531 974 b 624 1056 531 1019 571 1056 b 721 911 678 1056 721 1013 b 528 689 721 814 653 689 l 528 717 b 692 922 614 717 682 793 b 604 892 661 892 628 892 b 531 974 558 892 531 928 m 28 0 l 28 28 l 153 28 l 153 1014 l 28 1014 l 28 1042 l 410 1042 l 410 1014 l 285 1014 l 285 28 l 500 28 b 736 313 718 28 736 136 l 764 313 l 764 0 "},"Ĝ":{"ha":993,"x_min":0,"x_max":0,"o":"m 364 1139 l 350 1153 l 503 1306 l 593 1306 l 746 1153 l 732 1139 l 547 1243 m 979 410 l 979 382 l 896 382 l 896 229 b 514 -14 854 142 740 -14 b 63 521 225 -14 63 211 b 535 1056 63 831 253 1056 b 774 961 628 1056 714 1021 l 840 1042 l 861 1042 l 861 757 l 833 757 b 549 1021 819 913 693 1021 b 222 521 307 1021 222 774 b 514 14 222 268 279 14 b 750 174 686 14 736 143 l 750 382 l 604 382 l 604 410 "},"Ĵ":{"ha":592,"x_min":0,"x_max":0,"o":"m 175 1139 l 161 1153 l 314 1306 l 404 1306 l 557 1153 l 543 1139 l 358 1243 m 571 1042 l 571 1014 l 432 1014 l 432 236 b 182 -42 404 139 350 -42 b 21 118 75 -42 21 49 b 100 208 21 176 58 208 b 178 126 135 208 178 183 b 90 46 178 71 138 46 b 78 47 86 46 81 47 b 182 -14 90 25 118 -14 b 300 264 281 -14 300 69 l 300 1014 l 119 1014 l 119 1042 "},"ų":{"ha":813,"x_min":0,"x_max":0,"o":"m 778 28 l 778 0 l 657 0 b 599 -142 621 -28 599 -87 b 665 -253 599 -193 618 -253 b 757 -185 715 -253 742 -214 l 779 -194 b 619 -296 758 -233 718 -296 b 469 -176 549 -296 469 -260 b 607 0 469 -89 536 -33 l 556 0 l 556 174 b 329 -14 526 74 460 -14 b 132 196 181 -14 132 75 l 132 611 l 35 611 l 35 639 l 257 639 l 257 211 b 369 28 257 94 292 28 b 556 329 489 28 556 186 l 556 611 l 458 611 l 458 639 l 681 639 l 681 28 "},"ľ":{"ha":639,"x_min":0,"x_max":0,"o":"m 399 960 b 492 1042 399 1006 439 1042 b 589 897 546 1042 589 999 b 396 675 589 800 521 675 l 396 703 b 560 908 482 703 550 779 b 472 878 529 878 496 878 b 399 960 426 878 399 914 m 160 28 l 160 1014 l 35 1014 l 35 1042 l 285 1042 l 285 28 l 410 28 l 410 0 l 35 0 l 35 28 "},"ș":{"ha":597,"x_min":0,"x_max":0,"o":"m 63 -14 l 63 181 l 90 181 b 297 17 118 93 199 17 b 461 136 381 17 461 51 b 79 465 461 313 79 207 b 274 651 79 554 142 651 b 433 592 340 651 396 626 l 482 653 l 503 653 l 503 458 l 475 458 b 275 621 461 532 388 621 b 146 515 222 621 146 588 b 549 197 146 376 549 444 b 311 -14 549 74 446 -14 b 133 51 240 -14 178 11 l 83 -14 m 218 -137 b 311 -56 218 -92 258 -56 b 408 -200 365 -56 408 -99 b 215 -422 408 -297 340 -422 l 215 -394 b 379 -189 301 -394 369 -318 b 292 -219 349 -219 315 -219 b 218 -137 246 -219 218 -183 "},"‒":{"ha":618,"x_min":0,"x_max":0,"o":"m 535 396 l 535 368 l 83 368 l 83 396 "},"Ę":{"ha":813,"x_min":0,"x_max":0,"o":"m 493 386 b 368 525 493 479 447 525 l 285 525 l 285 28 l 507 28 b 743 313 697 28 743 136 l 771 313 l 771 0 l 668 0 l 668 -1 b 599 -150 625 -25 599 -90 b 665 -261 599 -201 618 -261 b 757 -193 715 -261 742 -222 l 779 -203 b 619 -304 758 -242 718 -304 b 469 -185 549 -304 469 -268 b 625 0 469 -89 549 -32 l 28 0 l 28 28 l 153 28 l 153 1014 l 28 1014 l 28 1042 l 757 1042 l 757 757 l 729 757 b 521 1014 729 906 683 1014 l 285 1014 l 285 553 l 368 553 b 493 685 447 553 493 592 l 521 685 l 521 386 l 493 386 "},"Ļ":{"ha":792,"x_min":0,"x_max":0,"o":"m 28 0 l 28 28 l 153 28 l 153 1014 l 28 1014 l 28 1042 l 410 1042 l 410 1014 l 285 1014 l 285 28 l 500 28 b 736 313 718 28 736 136 l 764 313 l 764 0 m 315 -165 b 408 -83 315 -119 356 -83 b 506 -228 463 -83 506 -126 b 313 -450 506 -325 438 -450 l 313 -422 b 476 -217 399 -422 467 -346 b 389 -247 446 -247 413 -247 b 315 -165 343 -247 315 -211 "},"¹":{"ha":736,"x_min":0,"x_max":0,"o":"m 299 650 l 299 1242 l 204 1242 l 204 1258 l 378 1258 l 378 650 l 469 650 l 469 633 l 190 633 l 190 650 "},"“":{"ha":569,"x_min":0,"x_max":0,"o":"m 514 799 b 421 717 514 753 474 717 b 324 861 367 717 324 760 b 517 1083 324 958 392 1083 l 517 1056 b 353 850 431 1056 363 979 b 440 881 383 881 417 881 b 514 799 486 881 514 844 m 243 799 b 150 717 243 753 203 717 b 53 861 96 717 53 760 b 246 1083 53 958 121 1083 l 246 1056 b 82 850 160 1056 92 979 b 169 881 113 881 146 881 b 243 799 215 881 243 844 "},"ﬀ":{"ha":875,"x_min":0,"x_max":0,"o":"m 146 28 l 146 611 l 21 611 l 21 639 l 146 639 l 146 642 b 447 986 146 824 267 986 b 594 928 511 986 563 963 b 815 1056 640 1004 714 1056 b 986 918 928 1056 986 983 b 907 832 986 861 949 832 b 829 907 872 832 829 851 b 917 985 829 963 869 985 b 929 983 921 985 926 983 b 815 1028 915 1000 888 1028 b 667 750 704 1028 667 926 l 667 639 l 861 639 l 861 611 l 667 611 l 667 28 l 833 28 l 833 0 l 21 0 l 21 28 m 575 900 b 447 958 575 917 519 958 b 271 681 350 958 271 857 l 271 639 l 542 639 l 542 711 b 543 749 542 724 542 736 b 475 824 511 753 475 774 b 563 901 475 879 515 901 b 575 900 567 901 572 900 m 542 28 l 542 611 l 271 611 l 271 28 "},"‽":{"ha":833,"x_min":0,"x_max":0,"o":"m 97 751 b 453 1056 97 879 228 1056 b 792 764 663 1056 792 944 b 461 465 792 600 626 469 b 426 289 443 399 426 338 l 399 289 b 344 672 399 386 360 539 b 343 699 343 682 343 690 b 426 803 343 738 361 803 b 510 699 492 803 510 738 b 508 672 510 690 510 682 b 467 488 501 613 485 549 b 665 778 582 511 665 653 b 421 1013 665 908 572 1013 b 146 814 235 1013 160 881 b 176 819 151 815 161 819 b 256 743 217 819 256 792 b 176 665 256 688 211 665 b 97 751 135 665 97 694 m 332 69 b 415 153 332 115 369 153 b 499 69 461 153 499 115 b 415 -14 499 24 461 -14 b 332 69 369 -14 332 24 "},"Ų":{"ha":965,"x_min":0,"x_max":0,"o":"m 658 -217 b 499 -318 638 -256 597 -318 b 349 -199 428 -318 349 -282 b 489 -21 349 -110 418 -54 b 153 319 257 -18 153 83 l 153 1014 l 28 1014 l 28 1042 l 424 1042 l 424 1014 l 285 1014 l 285 333 b 528 14 285 150 328 14 b 792 319 686 14 792 108 l 792 1014 l 674 1014 l 674 1042 l 944 1042 l 944 1014 l 819 1014 l 819 319 b 540 -19 819 106 732 -6 b 478 -164 501 -46 478 -107 b 544 -275 478 -215 497 -275 b 636 -207 594 -275 621 -236 l 658 -217 "},"ĸ":{"ha":786,"x_min":0,"x_max":0,"o":"m 146 28 l 146 611 l 21 611 l 21 639 l 271 639 l 271 371 l 575 611 l 422 611 l 422 639 l 732 639 l 732 611 l 621 611 l 375 413 l 703 28 l 779 28 l 779 0 l 450 0 l 450 28 l 546 28 l 271 350 l 271 28 l 368 28 l 368 0 l 21 0 l 21 28 "},"Ď":{"ha":972,"x_min":0,"x_max":0,"o":"m 671 1306 l 685 1292 l 532 1139 l 442 1139 l 289 1292 l 303 1306 l 486 1201 m 28 0 l 28 28 l 153 28 l 153 1014 l 28 1014 l 28 1042 l 417 1042 b 917 521 726 1042 917 817 b 417 0 917 225 713 0 m 285 1014 l 285 28 l 417 28 b 757 521 672 28 757 268 b 417 1014 757 774 658 1014 "},"˘":{"ha":389,"x_min":0,"x_max":0,"o":"m 69 1054 b 194 951 69 986 119 951 b 319 1054 269 951 319 986 l 347 1054 b 194 875 347 969 319 875 b 42 1054 69 875 42 969 l 69 1054 "},"Ĳ":{"ha":1085,"x_min":0,"x_max":0,"o":"m 181 28 l 181 1014 l 28 1014 l 28 1042 l 479 1042 l 479 1014 l 313 1014 l 313 28 l 479 28 l 479 0 l 28 0 l 28 28 m 1071 1042 l 1071 1014 l 932 1014 l 932 236 b 682 -42 904 139 850 -42 b 521 118 575 -42 521 49 b 600 208 521 176 558 208 b 678 126 635 208 678 183 b 590 46 678 71 638 46 b 578 47 586 46 581 47 b 682 -14 590 25 618 -14 b 800 264 781 -14 800 69 l 800 1014 l 619 1014 l 619 1042 "},"ȷ":{"ha":371,"x_min":0,"x_max":0,"o":"m 271 -17 b 53 -361 271 -199 233 -361 b -118 -210 -60 -361 -118 -289 b -39 -124 -118 -153 -81 -124 b 39 -199 -4 -124 39 -143 b -49 -276 39 -254 -1 -276 b -61 -275 -54 -276 -61 -275 b 46 -332 -61 -292 -15 -332 b 146 28 171 -332 146 -149 l 146 611 l 21 611 l 21 639 l 271 639 "},"ź":{"ha":625,"x_min":0,"x_max":0,"o":"m 219 736 l 213 764 l 546 844 b 608 799 585 854 608 825 b 560 750 608 772 586 751 m 272 611 b 94 400 114 611 94 540 l 67 400 l 67 639 l 568 639 l 568 611 l 178 28 l 353 28 b 563 256 543 28 563 83 l 590 256 l 590 0 l 28 0 l 28 28 l 417 611 l 272 611 "},"ņ":{"ha":813,"x_min":0,"x_max":0,"o":"m 132 28 l 132 611 l 35 611 l 35 639 l 257 639 l 257 465 b 483 653 286 565 353 653 b 681 443 632 653 681 564 l 681 28 l 778 28 l 778 0 l 458 0 l 458 28 l 556 28 l 556 428 b 443 611 556 544 521 611 b 257 310 324 611 257 453 l 257 28 l 354 28 l 354 0 l 35 0 l 35 28 m 326 -165 b 419 -83 326 -119 367 -83 b 517 -228 474 -83 517 -126 b 324 -450 517 -325 449 -450 l 324 -422 b 488 -217 410 -422 478 -346 b 400 -247 457 -247 424 -247 b 326 -165 354 -247 326 -211 "},"Ŵ":{"ha":1354,"x_min":0,"x_max":0,"o":"m 511 1139 l 497 1153 l 650 1306 l 740 1306 l 893 1153 l 879 1139 l 694 1243 m 876 1014 l 761 668 l 906 199 l 1178 1014 l 1063 1014 l 1063 1042 l 1340 1042 l 1340 1014 l 1211 1014 l 869 -14 l 835 -14 l 676 496 l 507 -14 l 472 -14 l 153 1014 l 21 1014 l 21 1042 l 993 1042 l 993 1014 m 660 549 l 515 1014 l 292 1014 l 543 199 m 746 719 l 843 1014 l 654 1014 "},"ĕ":{"ha":713,"x_min":0,"x_max":0,"o":"m 264 915 b 389 813 264 847 314 813 b 514 915 464 813 514 847 l 542 915 b 389 736 542 831 514 736 b 236 915 264 736 236 831 l 264 915 m 664 199 b 379 -14 628 78 533 -14 b 56 319 197 -14 56 111 b 375 653 56 528 193 653 b 663 349 582 653 663 500 l 201 349 b 201 319 201 339 201 329 b 396 14 201 161 244 14 b 636 199 518 14 601 97 l 664 199 m 375 625 b 203 376 254 625 211 511 l 515 376 b 375 625 514 471 499 625 "},"ŷ":{"ha":775,"x_min":0,"x_max":0,"o":"m 239 736 l 225 750 l 378 903 l 468 903 l 621 750 l 607 736 l 422 840 m 388 -6 l 94 611 l 7 611 l 7 639 l 356 639 l 356 611 l 235 611 l 454 149 l 657 611 l 525 611 l 525 639 l 782 639 l 782 611 l 694 611 l 306 -275 b 206 -367 281 -332 258 -367 b 128 -292 171 -367 128 -344 b 204 -214 128 -246 160 -214 b 276 -258 240 -214 269 -235 "},"ğ":{"ha":801,"x_min":0,"x_max":0,"o":"m 249 915 b 374 813 249 847 299 813 b 499 915 449 813 499 847 l 526 915 b 374 736 526 831 499 736 b 221 915 249 736 221 831 l 249 915 m 79 103 b 232 235 79 175 147 215 b 69 438 146 258 69 322 b 318 653 69 590 206 653 b 524 565 392 653 475 626 b 664 646 564 626 624 646 b 774 547 735 646 774 600 b 703 464 774 485 738 464 b 633 533 668 464 633 488 b 700 599 633 572 661 599 b 731 590 715 599 725 593 b 664 618 717 613 694 618 b 542 539 625 618 575 600 b 567 438 557 511 567 478 b 318 222 567 285 431 222 b 278 225 304 222 292 224 b 174 147 225 213 174 189 b 308 96 174 96 232 96 b 407 97 357 96 368 97 b 625 -114 511 97 625 75 b 333 -361 625 -282 486 -361 b 35 -174 176 -361 35 -306 b 194 -6 35 -64 128 -17 b 79 103 122 8 79 40 m 201 438 b 318 250 201 335 208 250 b 435 438 400 250 435 335 b 318 625 435 540 400 625 b 201 438 236 625 201 540 m 167 -142 b 342 -329 167 -236 208 -329 b 558 -135 479 -329 558 -262 b 417 -12 558 -60 507 -12 l 286 -12 b 225 -10 264 -12 244 -11 b 167 -142 172 -44 167 -100 "},"Ż":{"ha":778,"x_min":0,"x_max":0,"o":"m 313 1222 b 396 1306 313 1268 350 1306 b 479 1222 442 1306 479 1268 b 396 1139 479 1176 442 1139 b 313 1222 350 1139 313 1176 m 715 1042 l 715 1014 l 167 28 l 479 28 b 701 264 669 28 701 88 l 729 264 l 729 0 l 21 0 l 21 28 l 569 1014 l 299 1014 b 76 806 108 1014 76 954 l 49 806 l 49 1042 "},"Č":{"ha":931,"x_min":0,"x_max":0,"o":"m 732 1306 l 746 1292 l 593 1139 l 503 1139 l 350 1292 l 364 1306 l 547 1201 m 875 0 l 854 0 l 793 85 b 535 -14 733 24 642 -14 b 63 521 253 -14 63 211 b 535 1056 63 831 253 1056 b 774 961 628 1056 714 1021 l 840 1042 l 861 1042 l 861 757 l 833 757 b 549 1021 819 913 693 1021 b 222 521 307 1021 222 774 b 549 21 222 268 307 21 b 847 285 721 21 833 143 l 875 285 "},"ĝ":{"ha":801,"x_min":0,"x_max":0,"o":"m 203 736 l 189 750 l 342 903 l 432 903 l 585 750 l 571 736 l 386 840 m 79 103 b 232 235 79 175 147 215 b 69 438 146 258 69 322 b 318 653 69 590 206 653 b 524 565 392 653 475 626 b 664 646 564 626 624 646 b 774 547 735 646 774 600 b 703 464 774 485 738 464 b 633 533 668 464 633 488 b 700 599 633 572 661 599 b 731 590 715 599 725 593 b 664 618 717 613 694 618 b 542 539 625 618 575 600 b 567 438 557 511 567 478 b 318 222 567 285 431 222 b 278 225 304 222 292 224 b 174 147 225 213 174 189 b 308 96 174 96 232 96 b 407 97 357 96 368 97 b 625 -114 511 97 625 75 b 333 -361 625 -282 486 -361 b 35 -174 176 -361 35 -306 b 194 -6 35 -64 128 -17 b 79 103 122 8 79 40 m 201 438 b 318 250 201 335 208 250 b 435 438 400 250 435 335 b 318 625 435 540 400 625 b 201 438 236 625 201 540 m 167 -142 b 342 -329 167 -236 208 -329 b 558 -135 479 -329 558 -262 b 417 -12 558 -60 507 -12 l 286 -12 b 225 -10 264 -12 244 -11 b 167 -142 172 -44 167 -100 "},"":{"ha":806,"x_min":0,"x_max":0,"o":"m 75 785 b 396 1106 75 963 218 1106 b 717 785 574 1106 717 963 b 396 464 717 607 574 464 b 75 785 218 464 75 607 m 92 785 b 396 481 92 617 228 481 b 700 785 564 481 700 617 b 396 1089 700 953 564 1089 b 92 785 228 1089 92 953 m 525 597 l 518 597 l 496 628 b 403 592 474 606 442 592 b 232 785 301 592 232 674 b 403 978 232 896 301 978 b 489 943 436 978 467 964 l 513 972 l 519 972 l 519 869 l 510 869 b 407 965 506 926 460 965 b 290 785 321 965 290 876 b 407 604 290 693 321 604 b 515 700 469 604 510 649 l 525 700 "},"ŏ":{"ha":747,"x_min":0,"x_max":0,"o":"m 263 915 b 388 813 263 847 313 813 b 513 915 463 813 513 847 l 540 915 b 388 736 540 831 513 736 b 235 915 263 736 235 831 l 263 915 m 56 319 b 374 653 56 500 178 653 b 692 319 569 653 692 500 b 374 -14 692 139 569 -14 b 56 319 178 -14 56 139 m 201 319 b 374 14 201 189 222 14 b 546 319 525 14 546 189 b 374 625 546 450 525 625 b 201 319 222 625 201 450 "},"²":{"ha":653,"x_min":0,"x_max":0,"o":"m 139 635 l 139 689 l 321 867 b 433 1093 388 933 433 1015 b 300 1238 433 1188 390 1238 b 168 1101 213 1238 171 1174 b 204 1119 178 1113 190 1119 b 254 1074 229 1119 254 1103 b 201 1019 254 1040 231 1019 b 149 1092 172 1019 149 1040 b 335 1268 149 1190 213 1268 b 517 1110 453 1268 517 1193 b 424 938 517 1026 468 982 l 188 710 l 518 710 l 518 772 l 535 772 l 535 635 "},"ď":{"ha":976,"x_min":0,"x_max":0,"o":"m 764 960 b 857 1042 764 1006 804 1042 b 954 897 911 1042 954 999 b 761 675 954 800 886 675 l 761 703 b 925 908 847 703 915 779 b 838 878 894 878 861 878 b 764 960 792 878 764 914 m 789 0 l 567 0 l 567 158 b 350 -14 533 47 460 -14 b 56 319 199 -14 56 111 b 350 651 56 528 199 651 b 567 481 460 651 533 590 l 567 1014 l 469 1014 l 469 1042 l 692 1042 l 692 28 l 789 28 m 567 319 b 378 610 567 519 476 610 b 201 319 261 610 201 506 b 378 28 201 133 261 28 b 567 319 476 28 567 119 "},"”":{"ha":569,"x_min":0,"x_max":0,"o":"m 56 988 b 149 1069 56 1033 96 1069 b 246 925 203 1069 246 1026 b 53 703 246 828 178 703 l 53 731 b 217 936 139 731 207 807 b 129 906 186 906 153 906 b 56 988 83 906 56 942 m 326 988 b 419 1069 326 1033 367 1069 b 517 925 474 1069 517 1026 b 324 703 517 828 449 703 l 324 731 b 488 936 410 731 478 807 b 400 906 457 906 424 906 b 326 988 354 906 326 942 "},"ē":{"ha":713,"x_min":0,"x_max":0,"o":"m 579 764 l 579 736 l 188 736 l 188 764 m 664 199 b 379 -14 628 78 533 -14 b 56 319 197 -14 56 111 b 375 653 56 528 193 653 b 663 349 582 653 663 500 l 201 349 b 201 319 201 339 201 329 b 396 14 201 161 244 14 b 636 199 518 14 601 97 l 664 199 m 375 625 b 203 376 254 625 211 511 l 515 376 b 375 625 514 471 499 625 "},"Ą":{"ha":1021,"x_min":0,"x_max":0,"o":"m 140 28 l 507 1063 l 535 1063 l 893 28 l 1000 28 l 1000 0 l 881 0 b 825 -139 846 -29 825 -86 b 892 -250 825 -190 844 -250 b 983 -182 942 -250 968 -211 l 1006 -192 b 846 -293 985 -231 944 -293 b 696 -174 775 -293 696 -257 b 828 0 696 -89 760 -33 l 597 0 l 597 28 l 742 28 l 644 326 l 279 326 l 175 28 l 333 28 l 333 0 l 28 0 l 28 28 m 289 354 l 636 354 l 468 872 "},"":{"ha":889,"x_min":0,"x_max":0,"o":"m 117 785 b 438 1106 117 963 260 1106 b 758 785 615 1106 758 963 b 438 464 758 607 615 464 b 117 785 260 464 117 607 m 133 785 b 438 481 133 617 269 481 b 742 785 606 481 742 617 b 438 1089 742 953 606 1089 b 133 785 269 1089 133 953 m 339 606 l 339 961 l 283 961 l 283 971 l 449 971 b 574 878 524 971 574 943 b 472 788 574 819 538 792 b 589 606 621 776 529 606 b 613 610 599 606 606 607 l 615 600 b 571 593 608 596 589 593 b 446 783 454 593 569 783 l 386 783 l 386 606 l 440 606 l 440 596 l 283 596 l 283 606 m 386 961 l 386 793 l 449 793 b 524 878 496 793 524 824 b 449 961 524 932 496 961 "},"ŕ":{"ha":578,"x_min":0,"x_max":0,"o":"m 150 764 l 143 792 l 476 872 b 539 826 515 882 539 853 b 490 778 539 800 517 779 m 132 28 l 132 611 l 35 611 l 35 639 l 257 639 l 257 493 b 431 653 282 585 335 653 b 558 540 494 653 558 608 b 478 456 558 493 531 456 b 396 532 432 456 396 481 b 483 611 396 586 447 611 b 431 625 469 622 451 625 b 257 310 299 625 257 446 l 257 28 l 354 28 l 354 0 l 35 0 l 35 28 "},"Ğ":{"ha":993,"x_min":0,"x_max":0,"o":"m 424 1318 b 549 1215 424 1250 474 1215 b 674 1318 624 1215 674 1250 l 701 1318 b 549 1139 701 1233 674 1139 b 396 1318 424 1139 396 1233 l 424 1318 m 979 410 l 979 382 l 896 382 l 896 229 b 514 -14 854 142 740 -14 b 63 521 225 -14 63 211 b 535 1056 63 831 253 1056 b 774 961 628 1056 714 1021 l 840 1042 l 861 1042 l 861 757 l 833 757 b 549 1021 819 913 693 1021 b 222 521 307 1021 222 774 b 514 14 222 268 279 14 b 750 174 686 14 736 143 l 750 382 l 604 382 l 604 410 "},"Ĺ":{"ha":792,"x_min":0,"x_max":0,"o":"m 299 1139 l 292 1167 l 625 1247 b 688 1201 664 1257 688 1228 b 639 1153 688 1175 665 1154 m 28 0 l 28 28 l 153 28 l 153 1014 l 28 1014 l 28 1042 l 410 1042 l 410 1014 l 285 1014 l 285 28 l 500 28 b 736 313 718 28 736 136 l 764 313 l 764 0 "},"Ģ":{"ha":993,"x_min":0,"x_max":0,"o":"m 979 410 l 979 382 l 896 382 l 896 229 b 514 -14 854 142 740 -14 b 63 521 225 -14 63 211 b 535 1056 63 831 253 1056 b 774 961 628 1056 714 1021 l 840 1042 l 861 1042 l 861 757 l 833 757 b 549 1021 819 913 693 1021 b 222 521 307 1021 222 774 b 514 14 222 268 279 14 b 750 174 686 14 736 143 l 750 382 l 604 382 l 604 410 m 435 -179 b 528 -97 435 -133 475 -97 b 625 -242 582 -97 625 -140 b 432 -464 625 -339 557 -464 l 432 -436 b 596 -231 518 -436 586 -360 b 508 -261 565 -261 532 -261 b 435 -179 463 -261 435 -225 "},"ā":{"ha":738,"x_min":0,"x_max":0,"o":"m 563 764 l 563 736 l 171 736 l 171 764 m 453 363 l 453 424 b 331 617 453 517 442 617 b 204 581 269 617 224 597 b 265 511 229 574 265 556 b 183 432 265 456 218 432 b 111 508 142 432 111 458 b 358 650 111 594 232 650 b 578 424 567 650 578 536 l 578 85 b 629 36 578 57 596 36 b 710 99 654 36 683 51 l 731 88 b 581 -14 699 18 640 -14 b 453 101 515 -14 453 19 l 453 114 b 250 -14 422 31 356 -14 b 63 157 140 -14 63 54 b 367 363 63 274 169 363 m 313 36 b 453 251 392 36 453 111 l 453 335 l 367 335 b 204 178 261 335 204 264 b 313 36 204 99 236 36 "},"ŀ":{"ha":594,"x_min":0,"x_max":0,"o":"m 160 28 l 160 1014 l 35 1014 l 35 1042 l 285 1042 l 285 28 l 410 28 l 410 0 l 35 0 l 35 28 m 375 556 b 458 639 375 601 413 639 b 542 556 504 639 542 601 b 458 472 542 510 504 472 b 375 556 413 472 375 510 "},"č":{"ha":685,"x_min":0,"x_max":0,"o":"m 579 903 l 593 889 l 440 736 l 350 736 l 197 889 l 211 903 l 394 799 m 563 536 b 394 624 549 575 483 624 b 201 319 229 624 201 450 b 389 18 201 161 238 18 b 592 199 493 18 557 97 l 622 199 b 372 -14 586 78 513 -14 b 56 319 190 -14 56 111 b 381 653 56 500 171 653 b 611 474 522 653 611 574 b 532 388 611 417 574 388 b 453 465 497 388 453 410 b 532 542 453 514 492 542 b 563 536 547 542 557 538 "},"¸":{"ha":764,"x_min":0,"x_max":0,"o":"m 457 -194 b 301 -110 457 -121 392 -110 l 426 57 l 465 57 l 382 -54 b 556 -167 482 -58 556 -89 b 321 -306 556 -236 489 -306 l 321 -278 b 457 -194 403 -278 457 -242 "},"Ă":{"ha":1021,"x_min":0,"x_max":0,"o":"m 396 1353 b 521 1250 396 1285 446 1250 b 646 1353 596 1250 646 1285 l 674 1353 b 521 1174 674 1268 646 1174 b 368 1353 396 1174 368 1268 l 396 1353 m 140 28 l 507 1063 l 535 1063 l 893 28 l 1000 28 l 1000 0 l 597 0 l 597 28 l 742 28 l 644 326 l 279 326 l 175 28 l 333 28 l 333 0 l 28 0 l 28 28 m 289 354 l 636 354 l 468 872 "},"³":{"ha":625,"x_min":0,"x_max":0,"o":"m 492 801 b 283 626 492 693 400 626 b 111 749 164 626 111 688 b 161 803 111 782 132 803 b 206 756 186 803 206 786 b 158 710 206 729 183 710 b 140 713 150 710 143 713 b 267 649 144 690 188 649 b 407 801 365 649 407 724 b 243 965 407 863 383 965 l 243 981 b 382 1128 375 981 382 1074 b 279 1246 382 1189 344 1246 b 165 1189 217 1246 178 1213 b 183 1192 168 1190 175 1192 b 231 1146 208 1192 231 1175 b 183 1100 231 1113 204 1100 b 136 1151 158 1100 136 1117 b 292 1267 136 1211 206 1267 b 467 1128 383 1267 467 1219 b 311 972 467 1056 443 989 b 492 801 454 956 492 882 "},"Ň":{"ha":1014,"x_min":0,"x_max":0,"o":"m 708 1306 l 722 1292 l 569 1139 l 479 1139 l 326 1292 l 340 1306 l 524 1201 m 174 28 l 174 1014 l 28 1014 l 28 1042 l 326 1042 l 817 218 l 817 1014 l 664 1014 l 664 1042 l 993 1042 l 993 1014 l 847 1014 l 847 -14 l 799 -14 l 204 979 l 204 28 l 364 28 l 364 0 l 28 0 l 28 28 "},"Ĉ":{"ha":931,"x_min":0,"x_max":0,"o":"m 364 1139 l 350 1153 l 503 1306 l 593 1306 l 746 1153 l 732 1139 l 547 1243 m 875 0 l 854 0 l 793 85 b 535 -14 733 24 642 -14 b 63 521 253 -14 63 211 b 535 1056 63 831 253 1056 b 774 961 628 1056 714 1021 l 840 1042 l 861 1042 l 861 757 l 833 757 b 549 1021 819 913 693 1021 b 222 521 307 1021 222 774 b 549 21 222 268 307 21 b 847 285 721 21 833 143 l 875 285 "},"ﬄ":{"ha":1194,"x_min":0,"x_max":0,"o":"m 146 28 l 146 611 l 21 611 l 21 639 l 146 639 l 146 642 b 447 986 146 824 267 986 b 599 924 514 986 567 961 b 829 1056 647 1003 726 1056 b 951 1014 882 1056 924 1039 l 1076 1069 l 1076 28 l 1174 28 l 1174 0 l 21 0 l 21 28 m 943 969 b 829 1028 943 986 901 1028 b 667 750 718 1028 667 926 l 667 639 l 854 639 l 854 611 l 667 611 l 667 28 l 951 28 l 951 824 b 921 818 942 819 932 818 b 843 893 886 818 843 838 b 931 971 843 949 883 971 b 943 969 935 971 940 969 m 575 900 b 447 958 575 917 519 958 b 271 681 350 958 271 857 l 271 639 l 542 639 l 542 711 b 543 749 542 724 542 736 b 475 824 511 753 475 774 b 563 901 475 879 515 901 b 575 900 567 901 572 900 m 542 28 l 542 611 l 271 611 l 271 28 "},"˛":{"ha":764,"x_min":0,"x_max":0,"o":"m 539 -157 b 379 -258 518 -196 478 -258 b 229 -139 308 -258 229 -222 b 422 60 229 -28 338 32 l 428 44 b 358 -104 385 21 358 -44 b 425 -215 358 -156 378 -215 b 517 -147 475 -215 501 -176 l 539 -157 "},"¨":{"ha":556,"x_min":0,"x_max":0,"o":"m 333 1028 b 417 1111 333 1074 371 1111 b 500 1028 463 1111 500 1074 b 417 944 500 982 463 944 b 333 1028 371 944 333 982 m 56 1028 b 139 1111 56 1074 93 1111 b 222 1028 185 1111 222 1074 b 139 944 222 982 185 944 b 56 1028 93 944 56 982 "},"Ŗ":{"ha":965,"x_min":0,"x_max":0,"o":"m 181 28 l 181 1014 l 28 1014 l 28 1042 l 486 1042 b 833 785 696 1042 833 965 b 553 533 833 624 735 547 b 875 26 965 501 710 26 b 943 40 904 26 924 32 l 951 14 b 826 -7 929 1 876 -7 b 479 521 503 -7 821 521 l 313 521 l 313 28 l 465 28 l 465 0 l 28 0 l 28 28 m 313 1014 l 313 549 l 486 549 b 694 785 619 549 694 633 b 486 1014 694 936 619 1014 m 454 -131 b 547 -49 454 -85 494 -49 b 644 -193 601 -49 644 -92 b 451 -415 644 -290 576 -415 l 451 -387 b 615 -182 538 -387 606 -311 b 528 -212 585 -212 551 -212 b 454 -131 482 -212 454 -176 "},"Ĭ":{"ha":500,"x_min":0,"x_max":0,"o":"m 129 1346 b 254 1243 129 1278 179 1243 b 379 1346 329 1243 379 1278 l 407 1346 b 254 1167 407 1261 379 1167 b 101 1346 129 1167 101 1261 l 129 1346 m 181 28 l 181 1014 l 28 1014 l 28 1042 l 479 1042 l 479 1014 l 313 1014 l 313 28 l 479 28 l 479 0 l 28 0 l 28 28 "},"ă":{"ha":738,"x_min":0,"x_max":0,"o":"m 233 943 b 358 840 233 875 283 840 b 483 943 433 840 483 875 l 511 943 b 358 764 511 858 483 764 b 206 943 233 764 206 858 l 233 943 m 453 363 l 453 424 b 331 617 453 517 442 617 b 204 581 269 617 224 597 b 265 511 229 574 265 556 b 183 432 265 456 218 432 b 111 508 142 432 111 458 b 358 650 111 594 232 650 b 578 424 567 650 578 536 l 578 85 b 629 36 578 57 596 36 b 710 99 654 36 683 51 l 731 88 b 581 -14 699 18 640 -14 b 453 101 515 -14 453 19 l 453 114 b 250 -14 422 31 356 -14 b 63 157 140 -14 63 54 b 367 363 63 274 169 363 m 313 36 b 453 251 392 36 453 111 l 453 335 l 367 335 b 204 178 261 335 204 264 b 313 36 204 99 236 36 "},"˙":{"ha":278,"x_min":0,"x_max":0,"o":"m 56 917 b 139 1000 56 963 93 1000 b 222 917 185 1000 222 963 b 139 833 222 871 185 833 b 56 917 93 833 56 871 "},"Ś":{"ha":778,"x_min":0,"x_max":0,"o":"m 307 1139 l 300 1167 l 633 1247 b 696 1201 672 1257 696 1228 b 647 1153 696 1175 674 1154 m 63 -14 l 63 271 l 90 271 b 389 10 118 133 210 10 b 625 229 536 10 625 92 b 76 799 625 514 76 438 b 364 1056 76 951 210 1056 b 588 965 457 1056 535 1026 l 646 1056 l 667 1056 l 667 771 l 639 771 b 378 1024 611 936 508 1024 b 174 840 244 1024 174 950 b 722 278 174 583 722 653 b 403 -21 722 97 599 -21 b 140 88 278 -21 196 21 l 83 -14 "},"š":{"ha":597,"x_min":0,"x_max":0,"o":"m 510 903 l 524 889 l 371 736 l 281 736 l 128 889 l 142 903 l 325 799 m 63 -14 l 63 181 l 90 181 b 297 17 118 93 199 17 b 461 136 381 17 461 51 b 79 465 461 313 79 207 b 274 651 79 554 142 651 b 433 592 340 651 396 626 l 482 653 l 503 653 l 503 458 l 475 458 b 275 621 461 532 388 621 b 146 515 222 621 146 588 b 549 197 146 376 549 444 b 311 -14 549 74 446 -14 b 133 51 240 -14 178 11 l 83 -14 "},"Ŷ":{"ha":986,"x_min":0,"x_max":0,"o":"m 326 1139 l 313 1153 l 465 1306 l 556 1306 l 708 1153 l 694 1139 l 510 1243 m 444 28 l 444 500 l 122 1014 l 21 1014 l 21 1042 l 424 1042 l 424 1014 l 274 1014 l 558 558 l 833 1014 l 681 1014 l 681 1042 l 972 1042 l 972 1014 l 868 1014 l 576 532 l 576 28 l 715 28 l 715 0 l 319 0 l 319 28 "},"Ė":{"ha":813,"x_min":0,"x_max":0,"o":"m 324 1222 b 407 1306 324 1268 361 1306 b 490 1222 453 1306 490 1268 b 407 1139 490 1176 453 1139 b 324 1222 361 1139 324 1176 m 493 386 b 368 525 493 479 447 525 l 285 525 l 285 28 l 507 28 b 743 313 697 28 743 136 l 771 313 l 771 0 l 28 0 l 28 28 l 153 28 l 153 1014 l 28 1014 l 28 1042 l 757 1042 l 757 757 l 729 757 b 521 1014 729 906 683 1014 l 285 1014 l 285 553 l 368 553 b 493 685 447 553 493 592 l 521 685 l 521 386 l 493 386 "},"ŵ":{"ha":1063,"x_min":0,"x_max":0,"o":"m 417 736 l 403 750 l 556 903 l 646 903 l 799 750 l 785 736 l 600 840 m 569 653 l 604 653 l 756 172 l 901 611 l 758 611 l 758 639 l 1056 639 l 1056 611 l 936 611 l 728 -14 l 693 -14 l 529 458 l 344 -14 l 310 -14 l 107 611 l 7 611 l 7 639 l 356 639 l 356 611 l 236 611 l 375 153 "},"‱":{"ha":2708,"x_min":0,"x_max":0,"o":"m 49 750 b 326 1056 49 949 169 1056 b 604 750 483 1056 604 949 b 326 444 604 551 456 444 b 49 750 169 444 49 551 m 1063 1042 l 361 0 l 326 0 l 1028 1042 m 201 750 b 326 472 201 608 224 472 b 451 750 429 472 451 608 b 326 1028 451 892 429 1028 b 201 750 224 1028 201 892 m 2104 292 b 2382 597 2104 490 2225 597 b 2660 292 2539 597 2660 490 b 2382 -14 2660 93 2511 -14 b 2104 292 2225 -14 2104 93 m 1438 292 b 1715 597 1438 490 1558 597 b 1993 292 1872 597 1993 490 b 1715 -14 1993 93 1844 -14 b 1438 292 1558 -14 1438 93 m 785 292 b 1063 597 785 490 906 597 b 1340 292 1219 597 1340 490 b 1063 -14 1340 93 1192 -14 b 785 292 906 -14 785 93 m 2257 292 b 2382 14 2257 150 2279 14 b 2507 292 2485 14 2507 150 b 2382 569 2507 433 2485 569 b 2257 292 2279 569 2257 433 m 1590 292 b 1715 14 1590 150 1613 14 b 1840 292 1818 14 1840 150 b 1715 569 1840 433 1818 569 b 1590 292 1613 569 1590 433 m 938 292 b 1063 14 938 150 960 14 b 1188 292 1165 14 1188 150 b 1063 569 1188 433 1165 569 b 938 292 960 569 938 433 "},"–":{"ha":558,"x_min":0,"x_max":0,"o":"m 475 396 l 475 368 l 83 368 l 83 396 "},"ī":{"ha":375,"x_min":0,"x_max":0,"o":"m 335 764 l 335 736 l -57 736 l -57 764 m 125 28 l 125 611 l 28 611 l 28 639 l 250 639 l 250 28 l 347 28 l 347 0 l 28 0 l 28 28 "},"ĩ":{"ha":375,"x_min":0,"x_max":0,"o":"m 61 846 b -26 750 15 846 -26 822 l -54 750 b 83 926 -54 868 15 926 b 314 817 181 926 250 817 b 401 913 360 817 401 840 l 429 913 b 306 736 429 781 388 736 b 61 846 213 736 135 846 m 125 28 l 125 611 l 28 611 l 28 639 l 250 639 l 250 28 l 347 28 l 347 0 l 28 0 l 28 28 "},"№":{"ha":1508,"x_min":0,"x_max":0,"o":"m 1000 792 b 1235 1056 1000 958 1094 1056 b 1469 792 1375 1056 1469 958 b 1235 528 1469 625 1375 528 b 1000 792 1094 528 1000 625 m 174 28 l 174 1014 l 28 1014 l 28 1042 l 326 1042 l 817 218 l 817 1014 l 664 1014 l 664 1042 l 993 1042 l 993 1014 l 847 1014 l 847 -14 l 799 -14 l 204 979 l 204 28 l 364 28 l 364 0 l 28 0 l 28 28 m 1118 792 b 1235 556 1118 633 1153 556 b 1351 792 1317 556 1351 633 b 1235 1028 1351 950 1317 1028 b 1118 792 1153 1028 1118 950 m 1401 451 l 1401 424 l 1068 424 l 1068 451 "},"‰":{"ha":2042,"x_min":0,"x_max":0,"o":"m 49 750 b 326 1056 49 949 169 1056 b 604 750 483 1056 604 949 b 326 444 604 551 456 444 b 49 750 169 444 49 551 m 1063 1042 l 361 0 l 326 0 l 1028 1042 m 201 750 b 326 472 201 608 224 472 b 451 750 429 472 451 608 b 326 1028 451 892 429 1028 b 201 750 224 1028 201 892 m 1438 292 b 1715 597 1438 490 1558 597 b 1993 292 1872 597 1993 490 b 1715 -14 1993 93 1844 -14 b 1438 292 1558 -14 1438 93 m 785 292 b 1063 597 785 490 906 597 b 1340 292 1219 597 1340 490 b 1063 -14 1340 93 1192 -14 b 785 292 906 -14 785 93 m 1590 292 b 1715 14 1590 150 1613 14 b 1840 292 1818 14 1840 150 b 1715 569 1840 433 1818 569 b 1590 292 1613 569 1590 433 m 938 292 b 1063 14 938 150 960 14 b 1188 292 1165 14 1188 150 b 1063 569 1188 433 1165 569 b 938 292 960 569 938 433 "},"ż":{"ha":625,"x_min":0,"x_max":0,"o":"m 247 819 b 331 903 247 865 285 903 b 414 819 376 903 414 865 b 331 736 414 774 376 736 b 247 819 285 736 247 774 m 272 611 b 94 400 114 611 94 540 l 67 400 l 67 639 l 568 639 l 568 611 l 178 28 l 353 28 b 563 256 543 28 563 83 l 590 256 l 590 0 l 28 0 l 28 28 l 417 611 l 272 611 "},"ř":{"ha":578,"x_min":0,"x_max":0,"o":"m 508 931 l 522 917 l 369 764 l 279 764 l 126 917 l 140 931 l 324 826 m 132 28 l 132 611 l 35 611 l 35 639 l 257 639 l 257 493 b 431 653 282 585 335 653 b 558 540 494 653 558 608 b 478 456 558 493 531 456 b 396 532 432 456 396 481 b 483 611 396 586 447 611 b 431 625 469 622 451 625 b 257 310 299 625 257 446 l 257 28 l 354 28 l 354 0 l 35 0 l 35 28 "},"ĭ":{"ha":375,"x_min":0,"x_max":0,"o":"m 49 943 b 174 840 49 875 99 840 b 299 943 249 840 299 875 l 326 943 b 174 764 326 858 299 764 b 21 943 49 764 21 858 l 49 943 m 125 28 l 125 611 l 28 611 l 28 639 l 250 639 l 250 28 l 347 28 l 347 0 l 28 0 l 28 28 "},"ĳ":{"ha":690,"x_min":0,"x_max":0,"o":"m 104 972 b 188 1056 104 1018 142 1056 b 271 972 233 1056 271 1018 b 188 889 271 926 233 889 b 104 972 142 889 104 926 m 447 972 b 531 1056 447 1018 485 1056 b 614 972 576 1056 614 1018 b 531 889 614 926 576 889 b 447 972 485 889 447 926 m 139 28 l 139 611 l 42 611 l 42 639 l 264 639 l 264 28 l 361 28 l 361 0 l 42 0 l 42 28 m 604 -17 b 386 -361 604 -199 567 -361 b 215 -210 274 -361 215 -289 b 294 -124 215 -153 253 -124 b 372 -199 329 -124 372 -143 b 285 -276 372 -254 332 -276 b 272 -275 279 -276 272 -275 b 379 -332 272 -292 318 -332 b 479 28 504 -332 479 -149 l 479 611 l 354 611 l 354 639 l 604 639 "},"ĺ":{"ha":444,"x_min":0,"x_max":0,"o":"m 63 1125 l 56 1153 l 389 1233 b 451 1188 428 1243 451 1214 b 403 1139 451 1161 429 1140 m 160 28 l 160 1014 l 35 1014 l 35 1042 l 285 1042 l 285 28 l 410 28 l 410 0 l 35 0 l 35 28 "}}}
